<svg width="32" height="32" viewBox="0 0 32 32" fill="none" xmlns="http://www.w3.org/2000/svg">
<path fill-rule="evenodd" clip-rule="evenodd" d="M11.8262 2.75955C12.8551 1.83207 14.2356 1.33325 16.0002 1.33325C17.7647 1.33325 19.1499 1.83227 20.1818 2.77689C21.1819 3.69253 21.7105 4.90135 22.0341 6.05708C22.3223 7.0862 22.4791 8.1997 22.6171 9.17906C22.6329 9.29099 22.6484 9.40117 22.6638 9.50927C22.8236 10.6277 22.9737 11.5104 23.2381 12.1714C23.6862 13.2915 24.1883 14.1164 24.7113 14.9756C24.9132 15.3073 25.1182 15.6441 25.3245 16.0051C26.0537 17.2812 26.6668 18.6809 26.6668 20.6666C26.6668 24.0844 25.2223 26.6326 23.1188 28.2958C21.0549 29.9277 18.4165 30.6666 16.0002 30.6666C13.5838 30.6666 10.9454 29.9277 8.88152 28.2958C6.77801 26.6326 5.3335 24.0844 5.3335 20.6666C5.3335 17.259 6.71767 14.9616 7.87668 13.038C8.2209 12.4667 8.54526 11.9283 8.80759 11.4036C9.03233 10.9542 9.1768 10.2493 9.33906 9.21075C9.358 9.08954 9.37712 8.96446 9.39673 8.83618C9.53135 7.95535 9.689 6.92391 9.97016 5.95992C10.2957 4.84373 10.8272 3.66004 11.8262 2.75955ZM11.9738 9.62242C11.8235 10.5839 11.6347 11.7123 11.1927 12.5962C10.778 13.4256 10.3521 14.1366 9.95194 14.8045C8.88446 16.5864 8.00016 18.0625 8.00016 20.6666C8.00016 23.2488 9.05564 25.0339 10.5355 26.204C12.0549 27.4055 14.0832 27.9999 16.0002 27.9999C17.9172 27.9999 19.9454 27.4055 21.4648 26.204C22.9447 25.0339 24.0002 23.2488 24.0002 20.6666C24.0002 19.3189 23.6133 18.3853 23.0092 17.3281C22.8641 17.0742 22.698 16.8016 22.5196 16.5087C21.969 15.6047 21.3001 14.5066 20.7622 13.1618C20.3599 12.1561 20.1767 10.9555 20.024 9.8864C20.0085 9.77819 19.9933 9.67083 19.9782 9.56434C19.8354 8.5552 19.7034 7.62328 19.4662 6.77609C19.2065 5.84849 18.8601 5.18231 18.3811 4.74378C17.9337 4.33423 17.2356 3.99992 16.0002 3.99992C14.7648 3.99992 14.0619 4.33444 13.6116 4.74028C13.1314 5.17313 12.7879 5.82277 12.5302 6.70658C12.3022 7.48813 12.1729 8.32919 12.035 9.22612C12.0149 9.35703 11.9946 9.48914 11.9738 9.62242Z" fill="#D4182E"/>
<path fill-rule="evenodd" clip-rule="evenodd" d="M14.2419 17.4667C13.6656 18.2421 13.3337 19.2186 13.3337 19.9998C13.3337 20.7071 13.6146 21.3854 14.1147 21.8855C14.6148 22.3856 15.2931 22.6665 16.0003 22.6665C16.7076 22.6665 17.3858 22.3856 17.8859 21.8855C18.386 21.3854 18.667 20.7071 18.667 19.9998C18.667 19.2186 18.335 18.2421 17.7587 17.4667C17.1725 16.6781 16.5232 16.3332 16.0003 16.3332C15.4775 16.3332 14.8281 16.6781 14.2419 17.4667ZM12.1017 15.8759C12.9632 14.7169 14.3138 13.6665 16.0003 13.6665C17.6868 13.6665 19.0375 14.7169 19.8989 15.8759C20.7703 17.0483 21.3337 18.5718 21.3337 19.9998C21.3337 21.4143 20.7718 22.7709 19.7716 23.7711C18.7714 24.7713 17.4148 25.3332 16.0003 25.3332C14.5858 25.3332 13.2293 24.7713 12.2291 23.7711C11.2289 22.7709 10.667 21.4143 10.667 19.9998C10.667 18.5718 11.2304 17.0483 12.1017 15.8759Z" fill="#D4182E"/>
</svg>
