<svg width="32" height="32" viewBox="0 0 32 32" fill="none" xmlns="http://www.w3.org/2000/svg">
<path fill-rule="evenodd" clip-rule="evenodd" d="M15.9998 5.33341C10.1088 5.33341 5.33317 10.109 5.33317 16.0001C5.33317 21.8911 10.1088 26.6667 15.9998 26.6667C21.8909 26.6667 26.6665 21.8911 26.6665 16.0001C26.6665 10.109 21.8909 5.33341 15.9998 5.33341ZM2.6665 16.0001C2.6665 8.63628 8.63604 2.66675 15.9998 2.66675C23.3636 2.66675 29.3332 8.63628 29.3332 16.0001C29.3332 23.3639 23.3636 29.3334 15.9998 29.3334C8.63604 29.3334 2.6665 23.3639 2.6665 16.0001Z" fill="#D4182E"/>
<path fill-rule="evenodd" clip-rule="evenodd" d="M13.1714 3.83832C13.9216 3.08818 14.939 2.66675 15.9998 2.66675C16.7362 2.66675 17.3332 3.2637 17.3332 4.00008C17.3332 4.73646 16.7362 5.33341 15.9998 5.33341C15.6462 5.33341 15.3071 5.47389 15.057 5.72394C14.807 5.97399 14.6665 6.31313 14.6665 6.66675C14.6665 7.02037 14.807 7.35951 15.057 7.60956C15.3071 7.85961 15.6462 8.00008 15.9998 8.00008C16.7362 8.00008 17.3332 8.59703 17.3332 9.33341C17.3332 10.0698 16.7362 10.6667 15.9998 10.6667C14.939 10.6667 13.9216 10.2453 13.1714 9.49517C12.4213 8.74503 11.9998 7.72761 11.9998 6.66675C11.9998 5.60588 12.4213 4.58847 13.1714 3.83832ZM10.6665 13.3334C10.6665 12.597 11.2635 12.0001 11.9998 12.0001H12.0132C12.7496 12.0001 13.3465 12.597 13.3465 13.3334C13.3465 14.0698 12.7496 14.6667 12.0132 14.6667H11.9998C11.2635 14.6667 10.6665 14.0698 10.6665 13.3334ZM18.6665 13.3334C18.6665 12.597 19.2635 12.0001 19.9998 12.0001H20.0132C20.7496 12.0001 21.3465 12.597 21.3465 13.3334C21.3465 14.0698 20.7496 14.6667 20.0132 14.6667H19.9998C19.2635 14.6667 18.6665 14.0698 18.6665 13.3334ZM11.7334 19.0477C12.2594 18.5323 13.1035 18.541 13.6189 19.0669C13.9292 19.3837 14.2997 19.6353 14.7085 19.8071C15.1174 19.9789 15.5564 20.0674 15.9998 20.0674C16.4433 20.0674 16.8823 19.9789 17.2911 19.8071C17.7 19.6353 18.0704 19.3837 18.3808 19.0669C18.8961 18.541 19.7403 18.5323 20.2663 19.0477C20.7923 19.5631 20.8009 20.4072 20.2856 20.9332C19.7269 21.5034 19.0601 21.9564 18.3242 22.2656C17.5883 22.5748 16.7981 22.7341 15.9998 22.7341C15.2016 22.7341 14.4114 22.5748 13.6755 22.2656C12.9396 21.9564 12.2728 21.5034 11.7141 20.9332C11.1988 20.4072 11.2074 19.5631 11.7334 19.0477Z" fill="#D4182E"/>
</svg>
