<svg width="32" height="32" viewBox="0 0 32 32" fill="none" xmlns="http://www.w3.org/2000/svg">
<path fill-rule="evenodd" clip-rule="evenodd" d="M23.9998 16C23.9998 16.2653 23.8945 16.5196 23.7069 16.7072C23.5194 16.8947 23.2651 17 22.9998 17H11.4138L15.7078 21.292C15.8008 21.385 15.8746 21.4954 15.9249 21.6169C15.9752 21.7384 16.0011 21.8686 16.0011 22C16.0011 22.1315 15.9752 22.2617 15.9249 22.3832C15.8746 22.5047 15.8008 22.6151 15.7078 22.708C15.6149 22.801 15.5045 22.8748 15.383 22.9251C15.2615 22.9754 15.1313 23.0013 14.9998 23.0013C14.8683 23.0013 14.7381 22.9754 14.6167 22.9251C14.4952 22.8748 14.3848 22.801 14.2918 22.708L8.29183 16.708C8.19871 16.6152 8.12482 16.5048 8.07441 16.3833C8.024 16.2618 7.99805 16.1316 7.99805 16C7.99805 15.8685 8.024 15.7383 8.07441 15.6168C8.12482 15.4953 8.19871 15.3849 8.29183 15.292L14.2918 9.29204C14.4796 9.10427 14.7343 8.99878 14.9998 8.99878C15.2654 8.99878 15.5201 9.10427 15.7078 9.29204C15.8956 9.47982 16.0011 9.73449 16.0011 10C16.0011 10.2656 15.8956 10.5203 15.7078 10.708L11.4138 15H22.9998C23.2651 15 23.5194 15.1054 23.7069 15.2929C23.8945 15.4805 23.9998 15.7348 23.9998 16Z" fill="#D4182E"/>
</svg>
