<svg width="32" height="32" viewBox="0 0 32 32" fill="none" xmlns="http://www.w3.org/2000/svg">
<path fill-rule="evenodd" clip-rule="evenodd" d="M16.0002 1.33325C16.7365 1.33325 17.3335 1.93021 17.3335 2.66659V7.33325C17.3335 8.06963 16.7365 8.66658 16.0002 8.66658C15.2638 8.66658 14.6668 8.06963 14.6668 7.33325V2.66659C14.6668 1.93021 15.2638 1.33325 16.0002 1.33325ZM10.6668 3.33325C11.4032 3.33325 12.0002 3.93021 12.0002 4.66658V7.33325C12.0002 8.06963 11.4032 8.66658 10.6668 8.66658C9.93045 8.66658 9.3335 8.06963 9.3335 7.33325V4.66658C9.3335 3.93021 9.93045 3.33325 10.6668 3.33325ZM21.3335 3.33325C22.0699 3.33325 22.6668 3.93021 22.6668 4.66658V7.33325C22.6668 8.06963 22.0699 8.66658 21.3335 8.66658C20.5971 8.66658 20.0002 8.06963 20.0002 7.33325V4.66658C20.0002 3.93021 20.5971 3.33325 21.3335 3.33325ZM1.3335 11.3333C1.3335 10.5969 1.93045 9.99992 2.66683 9.99992H29.3335C30.0699 9.99992 30.6668 10.5969 30.6668 11.3333C30.6668 15.3106 28.3323 18.7319 24.9082 20.8744L26.2946 25.6005C26.2995 25.616 26.3041 25.6317 26.3084 25.6475L27.2796 28.9579C27.4869 29.6645 27.0821 30.4054 26.3755 30.6127C25.6689 30.82 24.928 30.4152 24.7207 29.7086L24.0239 27.3333H7.97641L7.27958 29.7086C7.07229 30.4152 6.33143 30.82 5.62483 30.6127C4.91823 30.4054 4.51346 29.6645 4.72075 28.9579L5.69188 25.6476C5.69621 25.6317 5.70082 25.616 5.70571 25.6004L7.09215 20.8744C3.66802 18.7321 1.3335 15.3113 1.3335 11.3333ZM9.31227 19.0762C9.29777 19.0682 9.28308 19.0605 9.26821 19.053C6.46337 17.5658 4.60376 15.2479 4.12342 12.6666H27.8769C27.3965 15.2476 25.5368 17.5659 22.7321 19.053C22.7173 19.0605 22.7026 19.0682 22.6881 19.0762C20.786 20.0747 18.4889 20.6666 16.0002 20.6666C13.5114 20.6666 11.2144 20.0747 9.31227 19.0762ZM9.5111 22.1019L8.75871 24.6666H23.2416L22.4892 22.1019C20.5264 22.8928 18.3219 23.3333 16.0002 23.3333C13.6784 23.3333 11.4739 22.8928 9.5111 22.1019ZM12.0002 16.6666C12.0002 15.9302 12.5971 15.3333 13.3335 15.3333H18.6668C19.4032 15.3333 20.0002 15.9302 20.0002 16.6666C20.0002 17.403 19.4032 17.9999 18.6668 17.9999H13.3335C12.5971 17.9999 12.0002 17.403 12.0002 16.6666Z" fill="#D4182E"/>
</svg>
