<svg width="32" height="32" viewBox="0 0 32 32" fill="none" xmlns="http://www.w3.org/2000/svg">
<path d="M9.69976 13C9.69976 12.7348 9.80512 12.4804 9.99265 12.2929C10.1802 12.1054 10.4345 12 10.6998 12H17.0998C17.365 12 17.6193 12.1054 17.8069 12.2929C17.9944 12.4804 18.0998 12.7348 18.0998 13V19C18.0998 19.2652 17.9944 19.5196 17.8069 19.7071C17.6193 19.8946 17.365 20 17.0998 20H10.6998C10.4345 20 10.1802 19.8946 9.99265 19.7071C9.80512 19.5196 9.69976 19.2652 9.69976 19V13ZM11.6998 18H16.0998V14H11.6998V18ZM2.53576 8.02C3.51576 5.804 5.73376 4 8.39976 4H23.9998C26.8738 4 29.9998 6.372 29.9998 10C29.9998 12.112 28.8198 13.902 27.9918 14.814C27.9778 15.91 28.0218 17.362 28.0758 18.916L28.0918 19.386C28.1458 20.97 28.2018 22.616 28.2018 24C28.2018 25.28 28.0698 26.478 27.2138 27.23C26.7898 27.604 26.2738 27.786 25.7538 27.882C25.1737 27.9727 24.5868 28.0122 23.9998 28H7.99976C6.11376 28 4.89376 27.434 4.26776 26.39C3.77176 25.564 3.78976 24.6 3.79776 24.136L3.79976 24V14.84C1.74376 12.84 1.58576 10.17 2.53576 8.02ZM8.39976 6C6.66576 6 5.08576 7.198 4.36576 8.828C3.66576 10.414 3.83576 12.268 5.44776 13.638C5.55815 13.7319 5.6468 13.8487 5.70758 13.9803C5.76836 14.1119 5.79981 14.2551 5.79976 14.4V24.134C5.79976 24.676 5.79976 25.054 5.98176 25.36C6.10576 25.566 6.48776 26 8.00176 26H20.0018C20.6258 26 21.0498 25.974 21.3518 25.916C21.6418 25.86 21.7278 25.79 21.7518 25.764C21.7778 25.74 21.8498 25.658 21.9098 25.368C21.9698 25.068 21.9998 24.638 21.9998 24C21.9998 23.026 21.9918 21.948 21.9858 20.86C21.959 18.8307 21.9637 16.8011 21.9998 14.772C22.0071 14.5161 22.1123 14.2727 22.2938 14.092C22.4538 13.932 22.6058 13.788 22.7538 13.648C23.1418 13.28 23.4818 12.958 23.7918 12.504C24.1718 11.944 24.4838 11.19 24.4838 10C24.4838 8.688 23.8878 7.716 23.0278 7.044C22.1567 6.37986 21.095 6.0138 19.9998 6H8.39976Z" fill="#D4182E"/>
</svg>
