<svg width="32" height="32" viewBox="0 0 32 32" fill="none" xmlns="http://www.w3.org/2000/svg">
<path d="M29.8666 17.0666C29.8666 17.6324 29.6419 18.175 29.2418 18.5751C28.8417 18.9752 28.2991 19.1999 27.7333 19.1999H4.26663C3.70084 19.1999 3.15822 18.9752 2.75814 18.5751C2.35806 18.175 2.1333 17.6324 2.1333 17.0666C2.1333 16.5008 2.35806 15.9582 2.75814 15.5581C3.15822 15.158 3.70084 14.9333 4.26663 14.9333H27.7333C28.2991 14.9333 28.8417 15.158 29.2418 15.5581C29.6419 15.9582 29.8666 16.5008 29.8666 17.0666ZM7.46663 21.3333H4.26663C4.26663 23.0307 4.94092 24.6585 6.14115 25.8588C7.34138 27.059 8.96925 27.7333 10.6666 27.7333H21.3333C23.0307 27.7333 24.6586 27.059 25.8588 25.8588C27.059 24.6585 27.7333 23.0307 27.7333 21.3333H7.46663ZM6.39997 12.7999H4.26663V8.53327C4.26663 7.40168 4.71616 6.31643 5.51631 5.51628C6.31647 4.71612 7.40171 4.2666 8.5333 4.2666H23.4666C24.5982 4.2666 25.6835 4.71612 26.4836 5.51628C27.2838 6.31643 27.7333 7.40168 27.7333 8.53327V12.7999H6.39997ZM23.4666 9.59994C23.4666 9.88283 23.579 10.1541 23.7791 10.3542C23.9791 10.5542 24.2504 10.6666 24.5333 10.6666C24.8162 10.6666 25.0875 10.5542 25.2875 10.3542C25.4876 10.1541 25.6 9.88283 25.6 9.59994C25.6 9.31704 25.4876 9.04573 25.2875 8.84569C25.0875 8.64565 24.8162 8.53327 24.5333 8.53327C24.2504 8.53327 23.9791 8.64565 23.7791 8.84569C23.579 9.04573 23.4666 9.31704 23.4666 9.59994ZM19.2 7.4666C19.2 7.7495 19.3123 8.02081 19.5124 8.22085C19.7124 8.42089 19.9837 8.53327 20.2666 8.53327C20.5495 8.53327 20.8208 8.42089 21.0209 8.22085C21.2209 8.02081 21.3333 7.7495 21.3333 7.4666C21.3333 7.1837 21.2209 6.91239 21.0209 6.71235C20.8208 6.51232 20.5495 6.39994 20.2666 6.39994C19.9837 6.39994 19.7124 6.51232 19.5124 6.71235C19.3123 6.91239 19.2 7.1837 19.2 7.4666ZM14.9333 9.59994C14.9333 9.88283 15.0457 10.1541 15.2457 10.3542C15.4458 10.5542 15.7171 10.6666 16 10.6666C16.2829 10.6666 16.5542 10.5542 16.7542 10.3542C16.9543 10.1541 17.0666 9.88283 17.0666 9.59994C17.0666 9.31704 16.9543 9.04573 16.7542 8.84569C16.5542 8.64565 16.2829 8.53327 16 8.53327C15.7171 8.53327 15.4458 8.64565 15.2457 8.84569C15.0457 9.04573 14.9333 9.31704 14.9333 9.59994ZM10.6666 7.4666C10.6666 7.7495 10.779 8.02081 10.9791 8.22085C11.1791 8.42089 11.4504 8.53327 11.7333 8.53327C12.0162 8.53327 12.2875 8.42089 12.4875 8.22085C12.6876 8.02081 12.8 7.7495 12.8 7.4666C12.8 7.1837 12.6876 6.91239 12.4875 6.71235C12.2875 6.51232 12.0162 6.39994 11.7333 6.39994C11.4504 6.39994 11.1791 6.51232 10.9791 6.71235C10.779 6.91239 10.6666 7.1837 10.6666 7.4666ZM6.39997 9.59994C6.39997 9.88283 6.51235 10.1541 6.71239 10.3542C6.91243 10.5542 7.18374 10.6666 7.46663 10.6666C7.74953 10.6666 8.02084 10.5542 8.22088 10.3542C8.42092 10.1541 8.5333 9.88283 8.5333 9.59994C8.5333 9.31704 8.42092 9.04573 8.22088 8.84569C8.02084 8.64565 7.74953 8.53327 7.46663 8.53327C7.18374 8.53327 6.91243 8.64565 6.71239 8.84569C6.51235 9.04573 6.39997 9.31704 6.39997 9.59994Z" fill="#D4182E"/>
</svg>
