<svg width="32" height="32" viewBox="0 0 32 32" fill="none" xmlns="http://www.w3.org/2000/svg">
<path fill-rule="evenodd" clip-rule="evenodd" d="M12.9586 9.4284C13.8487 9.06052 14.8026 8.87156 15.7657 8.87232C16.7289 8.87307 17.6825 9.06353 18.572 9.43281C19.4616 9.8021 20.2697 10.343 20.9502 11.0246C21.6307 11.7062 22.1703 12.5151 22.5382 13.4052C22.9061 14.2954 23.095 15.2492 23.0943 16.2124C23.0935 17.1755 22.9031 18.1291 22.5338 19.0187C22.3068 19.5654 22.0151 20.0813 21.6657 20.5557C21.6014 20.696 21.5116 20.8273 21.3961 20.9428C21.3503 20.9886 21.302 21.0304 21.2516 21.0681C21.152 21.1807 21.0487 21.2903 20.942 21.3968C19.8497 22.4889 18.1748 23.5688 16.3818 24.5553C14.5628 25.556 12.5199 26.5149 10.6165 27.3454C8.71005 28.1771 6.9267 28.8872 5.62081 29.3891C4.96738 29.6403 4.4323 29.8397 4.05969 29.9767C3.87336 30.0453 3.72758 30.0982 3.62785 30.1342L3.51347 30.1753L3.48346 30.186L3.47327 30.1896C3.47306 30.1897 3.47226 30.19 3.02663 28.9333C1.77011 28.4873 1.77017 28.4871 1.77024 28.4869L1.7741 28.4761L1.78481 28.4461L1.82593 28.3318C1.86191 28.2322 1.91484 28.0865 1.98337 27.9003C2.12042 27.528 2.31995 26.9934 2.57121 26.3405C3.07335 25.0356 3.78388 23.2534 4.61649 21.3478C5.44782 19.4451 6.40809 17.4026 7.41071 15.583C8.39942 13.7886 9.48202 12.1123 10.5772 11.0172C11.2587 10.3366 12.0684 9.79629 12.9586 9.4284ZM3.02663 28.9333L1.77024 28.4869C1.59821 28.9715 1.7201 29.5123 2.08367 29.876C2.44725 30.2396 2.98858 30.3615 3.47327 30.1896L3.02663 28.9333ZM5.31187 26.649C6.50521 26.1828 7.98697 25.5832 9.55012 24.9012C11.4133 24.0883 13.3754 23.1656 15.0964 22.2188C16.5184 21.4365 17.7105 20.6727 18.544 19.9763L16.2305 17.6628C15.7098 17.1421 15.7098 16.2979 16.2305 15.7772C16.7512 15.2565 17.5954 15.2565 18.1161 15.7772L20.145 17.8061C20.3314 17.2952 20.4272 16.7552 20.4276 16.2103C20.4281 15.5973 20.3078 14.9903 20.0737 14.4238C19.8396 13.8573 19.4962 13.3425 19.0631 12.9087C18.63 12.4749 18.1157 12.1307 17.5496 11.8957C16.9835 11.6607 16.3766 11.5395 15.7636 11.539C15.1507 11.5385 14.5436 11.6588 13.9771 11.8929C13.4107 12.127 12.896 12.4703 12.4623 12.9033C12.4622 12.9034 12.4623 12.9032 12.4623 12.9033M10.4224 15.6934C11.1439 14.494 11.8374 13.5283 12.4623 12.9033L10.4224 15.6934ZM9.0816 18.1212C8.36881 19.5096 7.68224 20.9915 7.0601 22.4155C6.37784 23.977 5.77816 25.4569 5.31187 26.649M9.0816 18.1212L10.5795 19.6117C11.1014 20.1312 11.9457 20.1291 12.4651 19.6071C12.9845 19.0852 12.9824 18.2409 12.4605 17.7215L10.4224 15.6934" fill="#D4182E"/>
<path fill-rule="evenodd" clip-rule="evenodd" d="M20.7161 9.59809C21.6416 8.90742 23.1108 8 24.6668 8C26.5364 8 27.9954 8.86108 28.9356 9.63976C29.4117 10.034 29.779 10.4265 30.0292 10.7223C30.155 10.871 30.253 10.9974 30.3222 11.0906C30.3568 11.1372 30.3843 11.1757 30.4046 11.2046L30.4296 11.2407L30.438 11.2532L30.4412 11.2579L30.4426 11.2599C30.4429 11.2604 30.4438 11.2617 29.3335 12C30.4438 12.7383 30.4435 12.7387 30.4432 12.7392L30.4412 12.7421L30.438 12.7468L30.4296 12.7593L30.4046 12.7954C30.3843 12.8243 30.3568 12.8628 30.3222 12.9094C30.253 13.0026 30.155 13.129 30.0292 13.2777C29.779 13.5735 29.4117 13.966 28.9356 14.3602C27.9954 15.1389 26.5364 16 24.6668 16C22.7972 16 21.3383 15.1389 20.3981 14.3602C19.922 13.966 19.5546 13.5735 19.3045 13.2777C19.1787 13.129 19.0807 13.0026 19.0115 12.9094C18.9769 12.8628 18.9494 12.8243 18.9291 12.7954L18.9041 12.7593L18.8956 12.7468L18.8924 12.7421L18.8911 12.7401C18.8908 12.7396 18.8899 12.7383 20.0002 12C19.0238 11.092 19.024 11.0918 19.0242 11.0915L19.0258 11.0898L19.0288 11.0867L19.0374 11.0775L19.0654 11.048C19.0888 11.0236 19.1215 10.9898 19.1628 10.948C19.2453 10.8645 19.3629 10.7485 19.5099 10.6106C19.8024 10.3364 20.2194 9.96872 20.7161 9.59809ZM20.0002 12L19.0242 11.0915C18.6041 11.5433 18.5483 12.2246 18.8899 12.7383L20.0002 12ZM21.8564 12.0941C21.9322 12.1642 22.0131 12.2354 22.0989 12.3064C22.7687 12.8611 23.6431 13.3333 24.6668 13.3333C25.6906 13.3333 26.565 12.8611 27.2347 12.3064C27.3593 12.2032 27.4736 12.0998 27.5768 12C27.4736 11.9002 27.3593 11.7968 27.2347 11.6936C26.565 11.1389 25.6906 10.6667 24.6668 10.6667C24.0362 10.6667 23.1721 11.0926 22.3109 11.7352C22.149 11.8561 21.9965 11.9775 21.8564 12.0941ZM29.3335 12L30.4432 12.7392C30.7406 12.2919 30.7412 11.709 30.4438 11.2617L29.3335 12Z" fill="#D4182E"/>
<path fill-rule="evenodd" clip-rule="evenodd" d="M20.7383 1.55633L20 2.66659L19.2617 1.55633C19.709 1.25889 20.291 1.25889 20.7383 1.55633ZM20 11.9999C19.2617 13.1102 19.2613 13.1099 19.2608 13.1096L19.2579 13.1077L19.2532 13.1045L19.2407 13.096L19.2046 13.071C19.1757 13.0507 19.1372 13.0232 19.0906 12.9886C18.9974 12.9194 18.871 12.8214 18.7223 12.6956C18.4265 12.4455 18.034 12.0781 17.6398 11.602C16.8611 10.6618 16 9.20285 16 7.33325C16 5.46366 16.8611 4.00474 17.6398 3.06448C18.034 2.5884 18.4265 2.22104 18.7223 1.97087C18.871 1.8451 18.9974 1.74707 19.0906 1.67793C19.1372 1.6433 19.1757 1.61578 19.2046 1.5955L19.2407 1.57047L19.2532 1.56204L19.2579 1.55884L19.2599 1.5575C19.2604 1.55722 19.2617 1.55633 20 2.66659C20.7383 1.55633 20.7379 1.55605 20.7383 1.55633L20.7401 1.5575L20.7421 1.55884L20.7468 1.56204L20.7593 1.57047L20.7954 1.5955C20.8243 1.61578 20.8628 1.6433 20.9094 1.67793C21.0026 1.74707 21.129 1.8451 21.2777 1.97087C21.5735 2.22104 21.966 2.5884 22.3602 3.06448C23.1389 4.00474 24 5.46366 24 7.33325C24 8.90138 23.0944 10.3696 22.4005 11.2959C22.0291 11.7917 21.6607 12.2068 21.3858 12.4977C21.2476 12.6439 21.1313 12.7608 21.0475 12.8428C21.0055 12.8839 20.9716 12.9164 20.9471 12.9396L20.9174 12.9675L20.9082 12.9762L20.905 12.9791L20.9037 12.9803C20.9035 12.9805 20.9027 12.9812 20 11.9999ZM20 11.9999L19.2608 13.1096C19.7723 13.4497 20.4507 13.397 20.9027 12.9812L20 11.9999ZM19.9092 10.1473C20.0253 10.0086 20.146 9.8577 20.2662 9.69722C20.9056 8.84357 21.3333 7.97846 21.3333 7.33325C21.3333 6.30951 20.8611 5.4351 20.3064 4.76536C20.2032 4.64076 20.0998 4.52651 20 4.42326C19.9002 4.52651 19.7968 4.64076 19.6936 4.76536C19.1389 5.4351 18.6667 6.30951 18.6667 7.33325C18.6667 8.35699 19.1389 9.2314 19.6936 9.90115C19.7658 9.98833 19.8381 10.0704 19.9092 10.1473Z" fill="#D4182E"/>
</svg>
