<svg width="32" height="32" viewBox="0 0 32 32" fill="none" xmlns="http://www.w3.org/2000/svg">
<path d="M30.0002 10.5001C30.0024 8.37756 29.2104 6.33105 27.7799 4.76297C26.3495 3.1949 24.3841 2.21873 22.2703 2.02643C20.1566 1.83413 18.0473 2.43962 16.3574 3.72382C14.6675 5.00802 13.5191 6.87801 13.1382 8.96606C12.3612 11.3321 11.6712 12.6611 11.2782 13.3081L7.29323 17.2931C7.15342 17.4329 7.05822 17.6111 7.01965 17.805C6.98108 17.999 7.00088 18.2 7.07655 18.3827C7.15222 18.5654 7.28036 18.7216 7.44477 18.8315C7.60918 18.9413 7.80248 19 8.00023 19.0001H8.10823L5.08423 22.0241C4.39257 22.1059 3.74106 22.3923 3.21306 22.8465C2.68506 23.3007 2.30459 23.9022 2.12032 24.5738C1.93605 25.2455 1.95637 25.9569 2.17868 26.6169C2.40098 27.277 2.81517 27.8557 3.36823 28.2791C3.50323 28.3821 3.62523 28.5041 3.72923 28.6391C4.15448 29.1903 4.73444 29.6021 5.39497 29.822C6.0555 30.0419 6.7666 30.0598 7.43736 29.8734C8.10812 29.687 8.70806 29.3049 9.16049 28.7757C9.61292 28.2466 9.89729 27.5946 9.97723 26.9031L13.0002 23.8781V24.0001C13.0003 24.1978 13.0589 24.3911 13.1688 24.5555C13.2787 24.7199 13.4349 24.8481 13.6176 24.9237C13.8003 24.9994 14.0013 25.0192 14.1953 24.9806C14.3892 24.9421 14.5674 24.8469 14.7072 24.7071L18.6942 20.7211C19.3472 20.3261 20.6862 19.6341 23.0662 18.8561C25.015 18.4904 26.7747 17.4551 28.0409 15.9292C29.3071 14.4033 30.0002 12.4829 30.0002 10.5001ZM13.0002 21.0501L8.31723 25.7341C8.21668 25.8347 8.13693 25.9541 8.08254 26.0855C8.02815 26.217 8.00018 26.3578 8.00023 26.5001C8.00028 26.8132 7.90232 27.1185 7.72008 27.3732C7.53785 27.6278 7.28048 27.8191 6.98407 27.9201C6.68766 28.0211 6.36707 28.0268 6.06725 27.9364C5.76743 27.846 5.50342 27.6641 5.31223 27.4161C5.10215 27.1444 4.85779 26.901 4.58523 26.6921C4.33599 26.5017 4.1527 26.2379 4.06114 25.938C3.96958 25.638 3.97435 25.3168 4.0748 25.0197C4.17524 24.7226 4.36629 24.4644 4.62108 24.2815C4.87587 24.0986 5.18159 24.0002 5.49523 24.0001C5.77823 24.0001 6.04823 23.8881 6.24823 23.6891L10.9372 19.0001H13.0002V21.0501ZM21.5002 4.00006C23.1263 3.99775 24.6941 4.60495 25.8944 5.70186C27.0947 6.79877 27.8403 8.30572 27.984 9.92537C28.1278 11.545 27.6593 13.1597 26.6709 14.4509C25.6826 15.7421 24.2462 16.6159 22.6452 16.9001C22.5992 16.9081 22.5552 16.9191 22.5112 16.9331C19.8412 17.8011 18.3202 18.5961 17.5412 19.0821C17.4767 19.1221 17.417 19.1694 17.3632 19.2231L15.0002 21.5861V18.0001C15.0002 17.7348 14.8949 17.4805 14.7073 17.293C14.5198 17.1054 14.2654 17.0001 14.0002 17.0001H10.4142L12.7742 14.6401C12.8274 14.5869 12.8744 14.5278 12.9142 14.4641C13.4002 13.6891 14.1942 12.1761 15.0612 9.52006C15.0763 9.4743 15.088 9.42751 15.0962 9.38006C15.3602 7.87322 16.1471 6.50771 17.3184 5.52369C18.4897 4.53967 19.9704 4.00017 21.5002 4.00006Z" fill="#D4182E"/>
</svg>
