<svg width="32" height="32" viewBox="0 0 32 32" fill="none" xmlns="http://www.w3.org/2000/svg">
<path d="M20.9558 3.29394C20.9944 3.1684 21.0079 3.03648 20.9956 2.90572C20.9832 2.77496 20.9452 2.64791 20.8837 2.53184C20.8222 2.41576 20.7385 2.31294 20.6373 2.22922C20.5361 2.14551 20.4194 2.08255 20.2938 2.04394C20.1683 2.00533 20.0364 1.99183 19.9056 2.0042C19.7748 2.01658 19.6478 2.05459 19.5317 2.11606C19.4157 2.17753 19.3128 2.26126 19.2291 2.36248C19.1454 2.46369 19.0824 2.5804 19.0438 2.70594L11.0438 28.7059C10.9659 28.9595 10.9918 29.2336 11.116 29.468C11.2401 29.7025 11.4523 29.878 11.7058 29.9559C11.9594 30.0339 12.2335 30.008 12.4679 29.8838C12.7024 29.7597 12.8779 29.5475 12.9558 29.2939L20.9558 3.29394ZM9.70783 8.29194C9.80096 8.38483 9.87485 8.49518 9.92526 8.61667C9.97567 8.73816 10.0016 8.86841 10.0016 8.99994C10.0016 9.13148 9.97567 9.26172 9.92526 9.38321C9.87485 9.5047 9.80096 9.61505 9.70783 9.70794L3.41383 15.9999L9.70783 22.2919C9.89561 22.4797 10.0011 22.7344 10.0011 22.9999C10.0011 23.2655 9.89561 23.5202 9.70783 23.7079C9.52006 23.8957 9.26539 24.0012 8.99983 24.0012C8.73428 24.0012 8.47961 23.8957 8.29183 23.7079L1.29183 16.7079C1.19871 16.6151 1.12482 16.5047 1.07441 16.3832C1.024 16.2617 0.998047 16.1315 0.998047 15.9999C0.998047 15.8684 1.024 15.7382 1.07441 15.6167C1.12482 15.4952 1.19871 15.3848 1.29183 15.2919L8.29183 8.29194C8.38473 8.19882 8.49508 8.12493 8.61657 8.07452C8.73806 8.0241 8.8683 7.99815 8.99983 7.99815C9.13137 7.99815 9.26161 8.0241 9.3831 8.07452C9.50459 8.12493 9.61494 8.19882 9.70783 8.29194ZM22.2918 8.29194C22.1987 8.38483 22.1248 8.49518 22.0744 8.61667C22.024 8.73816 21.998 8.86841 21.998 8.99994C21.998 9.13148 22.024 9.26172 22.0744 9.38321C22.1248 9.5047 22.1987 9.61505 22.2918 9.70794L28.5858 15.9999L22.2918 22.2919C22.1989 22.3849 22.1251 22.4953 22.0748 22.6168C22.0245 22.7383 21.9986 22.8685 21.9986 22.9999C21.9986 23.1314 22.0245 23.2616 22.0748 23.3831C22.1251 23.5046 22.1989 23.615 22.2918 23.7079C22.3848 23.8009 22.4952 23.8747 22.6167 23.925C22.7381 23.9753 22.8683 24.0012 22.9998 24.0012C23.1313 24.0012 23.2615 23.9753 23.383 23.925C23.5045 23.8747 23.6149 23.8009 23.7078 23.7079L30.7078 16.7079C30.801 16.6151 30.8748 16.5047 30.9253 16.3832C30.9757 16.2617 31.0016 16.1315 31.0016 15.9999C31.0016 15.8684 30.9757 15.7382 30.9253 15.6167C30.8748 15.4952 30.801 15.3848 30.7078 15.2919L23.7078 8.29194C23.6149 8.19882 23.5046 8.12493 23.3831 8.07452C23.2616 8.0241 23.1314 7.99815 22.9998 7.99815C22.8683 7.99815 22.7381 8.0241 22.6166 8.07452C22.4951 8.12493 22.3847 8.19882 22.2918 8.29194Z" fill="#D4182E"/>
</svg>
