<svg width="32" height="32" viewBox="0 0 32 32" fill="none" xmlns="http://www.w3.org/2000/svg">
<path d="M11.9998 28V24H2.6665V21.3333H11.9998C12.7332 21.3333 13.3612 21.5942 13.8838 22.116C14.4056 22.6387 14.6665 23.2667 14.6665 24V28H11.9998ZM17.3332 28V24C17.3332 23.2667 17.5945 22.6387 18.1172 22.116C18.6389 21.5942 19.2665 21.3333 19.9998 21.3333H29.3332V24H19.9998V28H17.3332ZM7.99984 20C6.88873 20 5.94428 19.6111 5.1665 18.8333C4.38873 18.0556 3.99984 17.1111 3.99984 16V10.6667H27.9998V16C27.9998 17.1111 27.6109 18.0556 26.8332 18.8333C26.0554 19.6111 25.1109 20 23.9998 20H7.99984ZM7.99984 17.3333H23.9998C24.3776 17.3333 24.6941 17.2053 24.9492 16.9493C25.2052 16.6942 25.3332 16.3778 25.3332 16V13.3333H6.6665V16C6.6665 16.3778 6.79406 16.6942 7.04917 16.9493C7.30517 17.2053 7.62206 17.3333 7.99984 17.3333ZM3.99984 9.33333V6.66667H11.9998V5.33333C11.9998 4.95556 12.1278 4.63867 12.3838 4.38267C12.6389 4.12756 12.9554 4 13.3332 4H18.6665C19.0443 4 19.3612 4.12756 19.6172 4.38267C19.8723 4.63867 19.9998 4.95556 19.9998 5.33333V6.66667H27.9998V9.33333H3.99984Z" fill="#D4182E"/>
</svg>
