<svg width="32" height="32" viewBox="0 0 32 32" fill="none" xmlns="http://www.w3.org/2000/svg">
<path d="M28.7973 14.7519C28.6368 14.6308 28.4511 14.5473 28.2541 14.5076C28.057 14.4679 27.8535 14.473 27.6586 14.5226C27.3355 14.6129 27.0021 14.6613 26.6666 14.6666C24.4613 14.6666 22.6666 12.8719 22.6626 10.7506C22.6693 10.7052 22.6839 10.5692 22.6853 10.5239C22.694 10.3155 22.6535 10.1079 22.5672 9.91794C22.4809 9.728 22.3512 9.56102 22.1884 9.43046C22.0257 9.29991 21.8345 9.20946 21.6304 9.16639C21.4263 9.12333 21.2149 9.12888 21.0133 9.18257C20.6835 9.27656 20.3428 9.32721 19.9999 9.33324C17.7946 9.33324 15.9999 7.53857 15.9999 5.33324C15.9999 5.04391 16.0413 4.74124 16.1319 4.37857C16.1833 4.17156 16.1842 3.95526 16.1346 3.74782C16.085 3.54038 15.9864 3.34786 15.8471 3.18642C15.7077 3.02497 15.5316 2.89932 15.3337 2.82C15.1357 2.74068 14.9216 2.71002 14.7093 2.73057C11.4072 3.03833 8.33997 4.57093 6.11121 7.02671C3.88245 9.48249 2.65363 12.6836 2.66661 15.9999C2.66661 23.3519 8.64794 29.3332 15.9999 29.3332C23.3519 29.3332 29.3333 23.3519 29.3333 15.9999C29.3333 15.9346 29.3293 15.8706 29.3239 15.7866C29.3195 15.5856 29.2698 15.3883 29.1786 15.2092C29.0874 15.0301 28.9571 14.8738 28.7973 14.7519ZM15.9999 26.6666C10.1186 26.6666 5.33327 21.8812 5.33327 15.9999C5.32376 13.6309 6.10688 11.3269 7.55801 9.45437C9.00914 7.58186 11.0449 6.24853 13.3413 5.66657C13.4287 7.37422 14.1682 8.98319 15.4071 10.1616C16.6461 11.34 18.2901 11.998 19.9999 11.9999L20.1346 11.9986C20.4406 13.4896 21.2469 14.8313 22.4198 15.8013C23.5928 16.7712 25.062 17.3113 26.5839 17.3319C25.9253 22.5879 21.4306 26.6666 15.9999 26.6666Z" fill="#D4182E"/>
<path d="M16.6665 17.3333C17.7711 17.3333 18.6665 16.4378 18.6665 15.3333C18.6665 14.2287 17.7711 13.3333 16.6665 13.3333C15.5619 13.3333 14.6665 14.2287 14.6665 15.3333C14.6665 16.4378 15.5619 17.3333 16.6665 17.3333Z" fill="#D4182E"/>
<path d="M11.3335 13.3333C12.4381 13.3333 13.3335 12.4378 13.3335 11.3333C13.3335 10.2287 12.4381 9.33325 11.3335 9.33325C10.2289 9.33325 9.3335 10.2287 9.3335 11.3333C9.3335 12.4378 10.2289 13.3333 11.3335 13.3333Z" fill="#D4182E"/>
<path d="M10 18.6667C11.1046 18.6667 12 17.7713 12 16.6667C12 15.5622 11.1046 14.6667 10 14.6667C8.89543 14.6667 8 15.5622 8 16.6667C8 17.7713 8.89543 18.6667 10 18.6667Z" fill="#D4182E"/>
<path d="M20.6665 22.6667C21.7711 22.6667 22.6665 21.7713 22.6665 20.6667C22.6665 19.5622 21.7711 18.6667 20.6665 18.6667C19.5619 18.6667 18.6665 19.5622 18.6665 20.6667C18.6665 21.7713 19.5619 22.6667 20.6665 22.6667Z" fill="#D4182E"/>
<path d="M14 24C15.1046 24 16 23.1046 16 22C16 20.8954 15.1046 20 14 20C12.8954 20 12 20.8954 12 22C12 23.1046 12.8954 24 14 24Z" fill="#D4182E"/>
</svg>
