<svg width="32" height="32" viewBox="0 0 32 32" fill="none" xmlns="http://www.w3.org/2000/svg">
<path d="M18.6668 19.3333H17.3335C17.3335 21.1746 19.1242 22.6666 21.3335 22.6666C22.4988 22.6666 23.5482 22.2513 24.2795 21.5879L23.0288 20.8739C22.5968 21.1506 22.0275 21.3339 21.3335 21.3339C19.6228 21.3339 18.6668 20.2206 18.6668 19.3339V19.3333Z" fill="#D4182E"/>
<path fill-rule="evenodd" clip-rule="evenodd" d="M12.9774 8.58393C13.4008 8.21059 13.7488 7.70659 13.8688 7.22526C13.9368 6.95193 13.9688 6.51926 13.6668 6.16993C13.3581 5.81193 12.9014 5.77259 12.5421 5.81793C12.3111 5.84691 12.0788 5.86382 11.8461 5.86859C11.6394 5.87526 11.3928 5.88393 11.1208 5.97193C10.8374 6.06393 10.5694 6.22526 10.2488 6.46193C10.0393 6.61562 9.84166 6.78476 9.65744 6.96793C8.57144 6.19459 7.17344 5.89259 4.97944 5.99993C4.71423 6.00258 4.46092 6.11048 4.27526 6.29989C4.0896 6.4893 3.98679 6.74471 3.98944 7.00993C3.99209 7.27514 4.09999 7.52844 4.28941 7.71411C4.47882 7.89977 4.73423 8.00258 4.99944 7.99993H5.95811C6.01544 8.03926 6.07011 8.07726 6.12144 8.11393L4.60811 10.0073C4.31301 10.0317 4.02702 10.1213 3.77077 10.2697C3.51452 10.418 3.29442 10.6215 3.12635 10.8652C2.95828 11.109 2.84644 11.3871 2.7989 11.6793C2.75135 11.9716 2.7693 12.2708 2.85144 12.5553L3.04477 13.2219C3.1651 13.6382 3.41738 14.0042 3.76365 14.2647C4.10991 14.5253 4.53144 14.6663 4.96478 14.6666H7.04611C7.19119 14.6665 7.33233 14.7138 7.44811 14.8013L8.74344 15.7799C8.85677 15.8653 8.97544 15.9366 9.09811 15.9953C9.86944 18.0819 10.6994 19.8593 11.6394 21.0433L11.8528 23.6099C11.6321 23.7798 11.4701 24.0145 11.3896 24.2811C11.309 24.5477 11.314 24.8328 11.4038 25.0965C11.4936 25.3601 11.6637 25.589 11.8902 25.751C12.1167 25.9131 12.3883 26.0001 12.6668 25.9999H14.6668C14.8436 25.9999 15.0132 25.9297 15.1382 25.8047C15.2632 25.6796 15.3334 25.5101 15.3334 25.3333V19.9999H20.2748C21.1821 20.8439 22.2328 21.5413 23.7114 21.8873L23.8548 23.6093C23.6339 23.7789 23.4717 24.0135 23.391 24.28C23.3103 24.5466 23.315 24.8317 23.4046 25.0954C23.4941 25.3591 23.664 25.5881 23.8904 25.7504C24.1168 25.9126 24.3883 25.9999 24.6668 25.9999H26.6668C26.8436 25.9999 27.0132 25.9297 27.1382 25.8047C27.2632 25.6796 27.3334 25.5101 27.3334 25.3333V13.9999C27.3334 12.0533 26.8201 10.6966 25.9754 9.82659C25.1308 8.95726 24.0454 8.66659 23.0901 8.66659H14.3334C13.8334 8.66659 13.3848 8.63593 12.9774 8.58326V8.58393ZM7.42944 7.45259C7.45611 7.47526 7.48078 7.49793 7.50544 7.52059C7.63046 7.6347 7.7074 7.79209 7.72065 7.96083C7.7339 8.12958 7.68246 8.29704 7.57678 8.42926L5.45411 11.0826C5.39169 11.1608 5.31248 11.2239 5.22235 11.2673C5.13222 11.3107 5.03347 11.3332 4.93344 11.3333H4.77344C4.67004 11.3332 4.56804 11.3572 4.47552 11.4034C4.38299 11.4496 4.30248 11.5166 4.24033 11.5993C4.17818 11.6819 4.13612 11.7779 4.11745 11.8796C4.09878 11.9813 4.10403 12.0859 4.13278 12.1853L4.32478 12.8519C4.36496 12.9908 4.44917 13.1128 4.56472 13.1996C4.68027 13.2864 4.82091 13.3333 4.96544 13.3333H7.04677C7.4818 13.3333 7.90496 13.4751 8.25211 13.7373L9.54744 14.7159C9.62611 14.7746 9.70611 14.8119 9.78544 14.8319C9.8905 14.859 9.98736 14.9112 10.0676 14.9842C10.1479 15.0572 10.2092 15.1486 10.2461 15.2506C11.0781 17.5479 11.9194 19.3133 12.7968 20.3513C12.8861 20.4573 12.9402 20.5884 12.9514 20.7266L13.2208 23.9533C13.2348 24.12 13.1856 24.2859 13.083 24.418C12.9804 24.5502 12.8318 24.6389 12.6668 24.6666H14.0001V19.3333C14.0001 19.1565 14.0703 18.9869 14.1954 18.8619C14.3204 18.7368 14.49 18.6666 14.6668 18.6666H20.5401C20.714 18.6666 20.881 18.7346 21.0054 18.8559C21.9254 19.7513 22.9134 20.4186 24.4441 20.6759C24.5901 20.7006 24.7237 20.7731 24.8239 20.8821C24.9241 20.9911 24.9851 21.1304 24.9974 21.2779L25.2208 23.9539C25.2346 24.1205 25.1854 24.2863 25.0827 24.4183C24.9801 24.5503 24.8317 24.6389 24.6668 24.6666H26.0001V13.9999C26.0001 12.2799 25.5494 11.3026 25.0188 10.7559C24.4881 10.2093 23.7854 9.99993 23.0901 9.99993H14.3334C12.8068 9.99993 11.6868 9.74459 10.7508 9.42526C10.6128 9.37821 10.4941 9.28724 10.4127 9.16629C10.3314 9.04533 10.292 8.90105 10.3004 8.75554C10.3089 8.61003 10.3648 8.4713 10.4596 8.3606C10.5545 8.24989 10.683 8.17332 10.8254 8.14259C11.2808 8.04459 11.7121 7.87526 11.9754 7.68126C12.1635 7.54072 12.3246 7.36725 12.4508 7.16926C12.2334 7.18926 12.0614 7.19526 11.9228 7.19993H11.9208C11.6808 7.20859 11.6108 7.21459 11.5321 7.23993C11.4521 7.26659 11.3194 7.32926 11.0394 7.53526C10.6981 7.78659 10.4421 8.05393 10.2928 8.27459C10.2384 8.35437 10.1674 8.42139 10.0846 8.47102C10.0018 8.52065 9.90919 8.55171 9.81321 8.56204C9.71722 8.57237 9.62014 8.56174 9.52868 8.53087C9.43721 8.5 9.35354 8.44964 9.28344 8.38326C8.82277 7.94793 8.27544 7.62459 7.43011 7.45259H7.42944Z" fill="#D4182E"/>
<path d="M29.3333 17.3333C29.3333 18.07 29.0347 18.6667 28.6667 18.6667C28.2987 18.6667 28 18.07 28 17.3333C28 16.5967 28.2987 16 28.6667 16C29.0347 16 29.3333 16.5967 29.3333 17.3333Z" fill="#D4182E"/>
<path fill-rule="evenodd" clip-rule="evenodd" d="M21.667 9.99984V8.6665C21.7037 8.6665 25.0917 8.6665 25.1423 8.66784C26.487 8.6905 27.5797 8.95984 28.3243 9.67517C29.0783 10.3998 29.3337 11.4438 29.3337 12.6665H28.0003C28.0003 11.5945 27.7717 10.9938 27.4003 10.6372C27.019 10.2705 26.3443 10.0218 25.1203 10.0012H24.971L21.667 9.99984Z" fill="#D4182E"/>
<path d="M28 12.6665H29.3333L29 17.3332H28.3333L28 12.6665Z" fill="#D4182E"/>
<path fill-rule="evenodd" clip-rule="evenodd" d="M16.8839 20.322L18.0492 19.846L18.5539 21.0794L17.3892 21.5567L16.8839 20.322ZM18.5839 22.572L19.2899 21.2587L20.4646 21.8907L19.7579 23.204L18.5846 22.572H18.5839ZM21.6226 23.4094L21.3392 21.9454L22.6486 21.692L22.9312 23.156L21.6226 23.4094ZM20.2172 18.856C20.1494 18.9157 20.0949 18.9891 20.0574 19.0714C20.02 19.1537 20.0004 19.243 19.9999 19.3334H21.3332C21.3332 19.4427 21.3052 19.674 21.0999 19.8554C21.0278 19.9187 20.9434 19.9663 20.8519 19.9953C20.7605 20.0244 20.664 20.0341 20.5686 20.024C20.4408 20.0084 20.318 19.9652 20.2086 19.8974L20.2066 19.896C20.0632 19.8046 19.9272 19.7021 19.7999 19.5894C19.4409 19.2751 19.094 18.9473 18.7599 18.6067C18.0066 17.8487 17.1312 16.8914 16.7812 16.3734L17.8852 15.6267C18.1566 16.0274 18.9479 16.904 19.7052 17.6667C20.0138 17.9815 20.334 18.2846 20.6652 18.5754C20.7872 18.6787 20.8586 18.7307 20.8859 18.7487C20.8285 18.7212 20.7666 18.7041 20.7032 18.698C20.6157 18.6895 20.5274 18.6992 20.4438 18.7264C20.3602 18.7536 20.283 18.7977 20.2172 18.856Z" fill="#D4182E"/>
</svg>
