<svg width="32" height="32" viewBox="0 0 32 32" fill="none" xmlns="http://www.w3.org/2000/svg">
<g clip-path="url(#clip0_489_8697)">
<path d="M6 0C4.4087 0 2.88258 0.632141 1.75736 1.75736C0.632141 2.88258 0 4.4087 0 6L0 26C0 27.5913 0.632141 29.1174 1.75736 30.2426C2.88258 31.3679 4.4087 32 6 32H26C27.5913 32 29.1174 31.3679 30.2426 30.2426C31.3679 29.1174 32 27.5913 32 26V6C32 4.4087 31.3679 2.88258 30.2426 1.75736C29.1174 0.632141 27.5913 0 26 0L6 0ZM16 19C15.2044 19 14.4413 18.6839 13.8787 18.1213C13.3161 17.5587 13 16.7956 13 16C13 15.2044 13.3161 14.4413 13.8787 13.8787C14.4413 13.3161 15.2044 13 16 13C16.7956 13 17.5587 13.3161 18.1213 13.8787C18.6839 14.4413 19 15.2044 19 16C19 16.7956 18.6839 17.5587 18.1213 18.1213C17.5587 18.6839 16.7956 19 16 19Z" fill="#D4182E"/>
</g>
<defs>
<clipPath id="clip0_489_8697">
<rect width="32" height="32" fill="white"/>
</clipPath>
</defs>
</svg>
