<svg width="32" height="32" viewBox="0 0 32 32" fill="none" xmlns="http://www.w3.org/2000/svg">
<g clip-path="url(#clip0_489_8699)">
<path d="M16 22C17.5913 22 19.1174 21.3679 20.2426 20.2426C21.3679 19.1174 22 17.5913 22 16C22 14.4087 21.3679 12.8826 20.2426 11.7574C19.1174 10.6321 17.5913 10 16 10C14.4087 10 12.8826 10.6321 11.7574 11.7574C10.6321 12.8826 10 14.4087 10 16C10 17.5913 10.6321 19.1174 11.7574 20.2426C12.8826 21.3679 14.4087 22 16 22Z" fill="#D4182E"/>
<path d="M27.994 10.3401C28.0589 8.43292 27.5767 6.54694 26.6044 4.90489C25.6321 3.26284 24.2102 1.93328 22.5067 1.07321C20.8032 0.213141 18.8891 -0.141533 16.9905 0.0510657C15.0919 0.243665 13.2881 0.975495 11.792 2.16015C9.73929 1.78531 7.62075 2.06198 5.73316 2.9514C3.84556 3.84083 2.28347 5.29845 1.26573 7.12007C0.247988 8.94168 -0.174426 11.036 0.057665 13.1097C0.289756 15.1834 1.16472 17.1326 2.56 18.6841C1.80087 20.842 1.80446 23.1948 2.57018 25.3503C3.3359 27.5058 4.81745 29.3336 6.76776 30.5289C8.71806 31.7242 11.0192 32.2148 13.2874 31.9187C15.5556 31.6227 17.6538 30.558 19.232 28.9021C20.4528 29.6815 21.8852 30.0629 23.3318 29.994C24.7785 29.9251 26.1682 29.4091 27.3093 28.5172C28.4504 27.6254 29.2868 26.4015 29.7031 25.0143C30.1195 23.6272 30.0953 22.145 29.634 20.7721C30.4944 20.1157 31.1614 19.2388 31.5642 18.2343C31.967 17.2298 32.0907 16.1351 31.9223 15.066C31.7538 13.9969 31.2994 12.9933 30.6071 12.1614C29.9149 11.3294 29.0106 10.7002 27.99 10.3401H27.994ZM25.994 10.2721C25.9797 10.6976 26.1016 11.1166 26.3419 11.468C26.5822 11.8195 26.9283 12.085 27.33 12.2261C28.0104 12.4664 28.6132 12.8862 29.0746 13.4411C29.5359 13.9959 29.8387 14.6652 29.9508 15.378C30.0629 16.0908 29.9802 16.8207 29.7114 17.4904C29.4426 18.1601 28.9978 18.7446 28.424 19.1821C28.0922 19.4356 27.848 19.7865 27.7257 20.1857C27.6034 20.5849 27.6091 21.0123 27.742 21.4081C28.0724 22.3889 28.0904 23.4481 27.7933 24.4395C27.4963 25.4309 26.8989 26.3057 26.0836 26.9433C25.2684 27.5808 24.2753 27.9496 23.2416 27.9988C22.2078 28.0481 21.1842 27.7753 20.312 27.2181C19.9213 26.9683 19.4559 26.8621 18.9955 26.9175C18.5351 26.973 18.1082 27.1867 17.788 27.5221C16.5258 28.8482 14.847 29.7012 13.0317 29.9388C11.2165 30.1764 9.3747 29.7842 7.81372 28.8277C6.25273 27.8713 5.06703 26.4083 4.4545 24.6831C3.84197 22.9579 3.83967 21.0748 4.448 19.3481C4.56688 19.0096 4.59248 18.6452 4.5221 18.2933C4.45173 17.9414 4.28797 17.615 4.048 17.3481C2.9314 16.1069 2.23112 14.5475 2.04527 12.8883C1.85942 11.2291 2.19733 9.55336 3.01163 8.09586C3.82594 6.63835 5.07584 5.47213 6.58619 4.76062C8.09654 4.04911 9.79165 3.82795 11.434 4.12815C11.7138 4.17906 12.0012 4.16972 12.2771 4.10075C12.5531 4.03177 12.8111 3.90475 13.034 3.72815C14.231 2.78079 15.6741 2.1957 17.1929 2.04196C18.7117 1.88821 20.2428 2.17222 21.6054 2.86047C22.968 3.54871 24.1053 4.61245 24.8829 5.9261C25.6605 7.23976 26.0461 8.74848 25.994 10.2741V10.2721Z" fill="#D4182E"/>
</g>
<defs>
<clipPath id="clip0_489_8699">
<rect width="32" height="32" fill="white"/>
</clipPath>
</defs>
</svg>
