<svg width="32" height="32" viewBox="0 0 32 32" fill="none" xmlns="http://www.w3.org/2000/svg">
<path d="M26.0656 14.6626C25.459 13.2972 24.577 12.0716 23.475 11.0626L22.5656 10.2282C22.5347 10.2007 22.4976 10.1811 22.4574 10.1713C22.4172 10.1615 22.3752 10.1616 22.3351 10.1718C22.295 10.182 22.258 10.2019 22.2273 10.2297C22.1967 10.2575 22.1734 10.2924 22.1594 10.3314L21.7531 11.497C21.5 12.2282 21.0344 12.9751 20.375 13.7095C20.3313 13.7564 20.2813 13.7689 20.2469 13.772C20.2125 13.7751 20.1594 13.7689 20.1125 13.7251C20.0687 13.6876 20.0469 13.6314 20.05 13.5751C20.1656 11.6939 19.6031 9.57198 18.3719 7.26261C17.3531 5.34386 15.9375 3.84698 14.1687 2.80323L12.8781 2.04386C12.7094 1.94386 12.4938 2.07511 12.5031 2.27198L12.5719 3.77198C12.6187 4.79698 12.5 5.70323 12.2188 6.45636C11.875 7.37823 11.3812 8.23448 10.75 9.00323C10.3107 9.53749 9.81278 10.0207 9.26562 10.4439C7.94783 11.4569 6.87629 12.7549 6.13125 14.2407C5.38804 15.7395 5.00091 17.3897 5 19.0626C5 20.5376 5.29062 21.9657 5.86562 23.3126C6.42083 24.6094 7.22206 25.7863 8.225 26.7782C9.2375 27.7782 10.4125 28.5657 11.7219 29.1126C13.0781 29.6814 14.5156 29.9689 16 29.9689C17.4844 29.9689 18.9219 29.6814 20.2781 29.1157C21.5843 28.5721 22.772 27.7792 23.775 26.7814C24.7875 25.7814 25.5812 24.6126 26.1344 23.3157C26.7085 21.9725 27.003 20.5265 27 19.0657C27 17.5407 26.6875 16.0595 26.0656 14.6626ZM22.2812 25.2657C20.6031 26.9282 18.375 27.8407 16 27.8407C13.625 27.8407 11.3969 26.9282 9.71875 25.2657C8.04688 23.6064 7.125 21.4064 7.125 19.0657C7.125 17.7064 7.43125 16.4032 8.03438 15.1907C8.62188 14.0064 9.49687 12.947 10.5594 12.1314C11.237 11.6132 11.8516 11.0175 12.3906 10.3564C13.1719 9.40323 13.7844 8.34073 14.2094 7.20011C14.3837 6.7296 14.5104 6.24279 14.5875 5.74698C15.3406 6.44073 15.9719 7.27823 16.5 8.25948C17.5437 10.2157 18.025 11.9564 17.9312 13.4376C17.9089 13.7865 17.9658 14.1359 18.0979 14.4595C18.23 14.7832 18.4337 15.0727 18.6938 15.3064C18.9191 15.5099 19.1827 15.6667 19.4692 15.7676C19.7556 15.8684 20.0593 15.9114 20.3625 15.8939C20.9781 15.8626 21.5437 15.5907 21.9562 15.1314C22.3719 14.6657 22.7313 14.1907 23.0312 13.7064C23.4688 14.2657 23.8344 14.8751 24.125 15.5314C24.6219 16.6501 24.875 17.8407 24.875 19.0657C24.875 21.4064 23.9531 23.6095 22.2812 25.2657Z" fill="#D4182E"/>
</svg>
