<svg width="32" height="32" viewBox="0 0 32 32" fill="none" xmlns="http://www.w3.org/2000/svg">
<path d="M12.6865 15.632C12.6865 14.1253 12.8092 12.4293 13.2012 10.8493C13.5945 9.26396 14.2385 7.8693 15.2239 6.88396C16.3172 5.79063 17.8559 5.17729 19.5572 4.88663C21.2505 4.59463 23.0239 4.6373 24.4799 4.77996C25.1877 4.84257 25.8511 5.15216 26.3537 5.65455C26.8563 6.15694 27.1662 6.8201 27.2292 7.52796C27.3705 8.98529 27.4132 10.756 27.1225 12.452C26.8292 14.152 26.2159 15.6906 25.1225 16.784C24.1372 17.7706 22.7412 18.416 21.1545 18.8093C19.5745 19.2013 17.8772 19.3253 16.3705 19.3253C15.0372 19.3253 13.9439 20.4066 13.9372 21.744C13.9265 24.004 13.6439 26.624 12.6892 28.636C12.6368 28.588 12.6013 28.5244 12.5879 28.4546C12.3031 27.2551 11.9601 26.0701 11.5599 24.904C11.3676 24.3482 11.1418 23.8045 10.8839 23.276C10.6465 22.8013 10.3612 22.332 10.0159 21.9866C9.66919 21.64 9.19985 21.3546 8.72519 21.1173C8.19615 20.8594 7.65205 20.6337 7.09585 20.4413C5.92884 20.0403 4.74299 19.6963 3.54252 19.4106C3.47341 19.3973 3.41035 19.3623 3.36252 19.3106C5.37585 18.3546 8.00252 18.0746 10.2652 18.0653C10.9084 18.0618 11.524 17.8039 11.9777 17.348C12.4313 16.8921 12.6862 16.2751 12.6865 15.632ZM13.8092 5.47063C12.4745 6.8053 11.7025 8.58396 11.2599 10.368C10.8159 12.16 10.6852 14.0306 10.6865 15.6346C10.6855 15.7483 10.64 15.857 10.5597 15.9375C10.4794 16.018 10.3709 16.0639 10.2572 16.0653C7.89585 16.0746 4.90252 16.3586 2.48119 17.5146C1.57185 17.9493 1.19185 18.8453 1.37985 19.6946C1.55719 20.4893 2.19985 21.1413 3.06919 21.3533C4.12919 21.612 5.35852 21.9466 6.42785 22.3266C6.96252 22.516 7.44119 22.7106 7.83052 22.9053C8.23319 23.1066 8.47985 23.2786 8.60119 23.4C8.72252 23.5226 8.89452 23.768 9.09585 24.1706C9.29052 24.56 9.48519 25.0373 9.67452 25.5706C10.0532 26.64 10.3865 27.868 10.6452 28.928C10.8572 29.7973 11.5092 30.44 12.3052 30.6173C13.1545 30.8066 14.0505 30.4266 14.4852 29.5173C15.6412 27.0986 15.9252 24.112 15.9385 21.7533C15.9385 21.5213 16.1345 21.3253 16.3692 21.3253C17.9719 21.3253 19.8439 21.1946 21.6359 20.7506C23.4225 20.3066 25.2012 19.5346 26.5372 18.1986C28.0305 16.7053 28.7612 14.7186 29.0932 12.7906C29.4265 10.8546 29.3719 8.8893 29.2199 7.33329C29.1118 6.1642 28.5979 5.06979 27.7675 4.23984C26.9371 3.40988 25.8423 2.8967 24.6732 2.7893C23.1185 2.63596 21.1532 2.58263 19.2172 2.91463C17.2879 3.24663 15.3025 3.9773 13.8092 5.47063ZM21.3359 6.66663C21.6895 6.66663 22.0286 6.8071 22.2787 7.05715C22.5287 7.3072 22.6692 7.64634 22.6692 7.99996C22.6692 8.35358 22.5287 8.69272 22.2787 8.94277C22.0286 9.19282 21.6895 9.3333 21.3359 9.3333C20.9822 9.3333 20.6431 9.19282 20.393 8.94277C20.143 8.69272 20.0025 8.35358 20.0025 7.99996C20.0025 7.64634 20.143 7.3072 20.393 7.05715C20.6431 6.8071 20.9822 6.66663 21.3359 6.66663Z" fill="#D4182E"/>
</svg>
