<svg width="32" height="32" viewBox="0 0 32 32" fill="none" xmlns="http://www.w3.org/2000/svg">
<path fill-rule="evenodd" clip-rule="evenodd" d="M20 21.3333C20 22.3941 19.5786 23.4115 18.8284 24.1617C18.0783 24.9118 17.0609 25.3333 16 25.3333C14.9391 25.3333 13.9217 24.9118 13.1716 24.1617C12.4214 23.4115 12 22.3941 12 21.3333C12 20.2724 12.4214 19.255 13.1716 18.5048C13.9217 17.7547 14.9391 17.3333 16 17.3333C17.0609 17.3333 18.0783 17.7547 18.8284 18.5048C19.5786 19.255 20 20.2724 20 21.3333ZM17.3333 21.3333C17.3333 21.6869 17.1929 22.026 16.9428 22.2761C16.6928 22.5261 16.3536 22.6666 16 22.6666C15.6464 22.6666 15.3072 22.5261 15.0572 22.2761C14.8071 22.026 14.6667 21.6869 14.6667 21.3333C14.6667 20.9796 14.8071 20.6405 15.0572 20.3904C15.3072 20.1404 15.6464 19.9999 16 19.9999C16.3536 19.9999 16.6928 20.1404 16.9428 20.3904C17.1929 20.6405 17.3333 20.9796 17.3333 21.3333Z" fill="#D4182E"/>
<path fill-rule="evenodd" clip-rule="evenodd" d="M20 1.33325H12V3.99992H14.6667V6.66659H9.33333C7.91885 6.66659 6.56229 7.22849 5.5621 8.22868C4.5619 9.22888 4 10.5854 4 11.9999V25.3333C4 26.7477 4.5619 28.1043 5.5621 29.1045C6.56229 30.1047 7.91885 30.6666 9.33333 30.6666H22.6667C24.0812 30.6666 25.4377 30.1047 26.4379 29.1045C27.4381 28.1043 28 26.7477 28 25.3333V11.9999C28 10.5854 27.4381 9.22888 26.4379 8.22868C25.4377 7.22849 24.0812 6.66659 22.6667 6.66659H17.3333V3.99992H20V1.33325ZM22.6667 9.33325H9.33333C8.62609 9.33325 7.94781 9.6142 7.44772 10.1143C6.94762 10.6144 6.66667 11.2927 6.66667 11.9999H25.3333C25.3333 11.2927 25.0524 10.6144 24.5523 10.1143C24.0522 9.6142 23.3739 9.33325 22.6667 9.33325ZM25.3333 14.6666H6.66667V25.3333C6.66667 26.0405 6.94762 26.7188 7.44772 27.2189C7.94781 27.719 8.62609 27.9999 9.33333 27.9999H22.6667C23.3739 27.9999 24.0522 27.719 24.5523 27.2189C25.0524 26.7188 25.3333 26.0405 25.3333 25.3333V14.6666Z" fill="#D4182E"/>
</svg>
