<svg width="32" height="32" viewBox="0 0 32 32" fill="none" xmlns="http://www.w3.org/2000/svg">
<path fill-rule="evenodd" clip-rule="evenodd" d="M22.7078 3.29208C22.801 3.38497 22.8748 3.49532 22.9253 3.61681C22.9757 3.7383 23.0016 3.86854 23.0016 4.00008C23.0016 4.13161 22.9757 4.26186 22.9253 4.38335C22.8748 4.50484 22.801 4.61519 22.7078 4.70808L11.4138 16.0001L22.7078 27.2921C22.8956 27.4799 23.0011 27.7345 23.0011 28.0001C23.0011 28.2656 22.8956 28.5203 22.7078 28.7081C22.5201 28.8959 22.2654 29.0013 21.9998 29.0013C21.7343 29.0013 21.4796 28.8959 21.2918 28.7081L9.29183 16.7081C9.19871 16.6152 9.12482 16.5048 9.07441 16.3833C9.024 16.2619 8.99805 16.1316 8.99805 16.0001C8.99805 15.8685 9.024 15.7383 9.07441 15.6168C9.12482 15.4953 9.19871 15.385 9.29183 15.2921L21.2918 3.29208C21.3847 3.19895 21.4951 3.12507 21.6166 3.07465C21.7381 3.02424 21.8683 2.99829 21.9998 2.99829C22.1314 2.99829 22.2616 3.02424 22.3831 3.07465C22.5046 3.12507 22.6149 3.19895 22.7078 3.29208Z" fill="#D4182E"/>
</svg>
