<svg width="32" height="32" viewBox="0 0 32 32" fill="none" xmlns="http://www.w3.org/2000/svg">
<path d="M10.6663 9.31079C10.3127 9.31079 9.97358 9.45127 9.72353 9.70132C9.47348 9.95136 9.33301 10.2905 9.33301 10.6441C9.33301 10.9977 9.47348 11.3369 9.72353 11.5869C9.97358 11.837 10.3127 11.9775 10.6663 11.9775H21.333C21.6866 11.9775 22.0258 11.837 22.2758 11.5869C22.5259 11.3369 22.6663 10.9977 22.6663 10.6441C22.6663 10.2905 22.5259 9.95136 22.2758 9.70132C22.0258 9.45127 21.6866 9.31079 21.333 9.31079H10.6663V9.31079ZM9.33301 16.0001C9.33301 15.6465 9.47348 15.3074 9.72353 15.0573C9.97358 14.8073 10.3127 14.6668 10.6663 14.6668H21.333C21.6866 14.6668 22.0258 14.8073 22.2758 15.0573C22.5259 15.3074 22.6663 15.6465 22.6663 16.0001C22.6663 16.3537 22.5259 16.6929 22.2758 16.9429C22.0258 17.193 21.6866 17.3335 21.333 17.3335H10.6663C10.3127 17.3335 9.97358 17.193 9.72353 16.9429C9.47348 16.6929 9.33301 16.3537 9.33301 16.0001ZM10.6663 20.0228C10.3127 20.0228 9.97358 20.1633 9.72353 20.4133C9.47348 20.6634 9.33301 21.0025 9.33301 21.3561C9.33301 21.7097 9.47348 22.0489 9.72353 22.2989C9.97358 22.549 10.3127 22.6895 10.6663 22.6895H21.333C21.6866 22.6895 22.0258 22.549 22.2758 22.2989C22.5259 22.0489 22.6663 21.7097 22.6663 21.3561C22.6663 21.0025 22.5259 20.6634 22.2758 20.4133C22.0258 20.1633 21.6866 20.0228 21.333 20.0228H10.6663Z" fill="#D4182E"/>
<path fill-rule="evenodd" clip-rule="evenodd" d="M29.3332 16.0001C29.3332 23.3641 23.3638 29.3334 15.9998 29.3334C8.63584 29.3334 2.6665 23.3641 2.6665 16.0001C2.6665 8.63608 8.63584 2.66675 15.9998 2.66675C23.3638 2.66675 29.3332 8.63608 29.3332 16.0001ZM26.6665 16.0001C26.6665 18.8291 25.5427 21.5422 23.5423 23.5426C21.5419 25.5429 18.8288 26.6667 15.9998 26.6667C13.1709 26.6667 10.4578 25.5429 8.45736 23.5426C6.45698 21.5422 5.33317 18.8291 5.33317 16.0001C5.33317 13.1711 6.45698 10.458 8.45736 8.45761C10.4578 6.45722 13.1709 5.33341 15.9998 5.33341C18.8288 5.33341 21.5419 6.45722 23.5423 8.45761C25.5427 10.458 26.6665 13.1711 26.6665 16.0001V16.0001Z" fill="#D4182E"/>
</svg>
