<svg width="32" height="32" viewBox="0 0 32 32" fill="none" xmlns="http://www.w3.org/2000/svg">
<path d="M6.66667 28C5.93333 28 5.30533 27.7391 4.78267 27.2173C4.26089 26.6947 4 26.0667 4 25.3333V6.66667C4 5.93333 4.26089 5.30533 4.78267 4.78267C5.30533 4.26089 5.93333 4 6.66667 4H25.3333C26.0667 4 26.6947 4.26089 27.2173 4.78267C27.7391 5.30533 28 5.93333 28 6.66667V25.3333C28 26.0667 27.7391 26.6947 27.2173 27.2173C26.6947 27.7391 26.0667 28 25.3333 28H6.66667ZM6.66667 16V25.3333H25.3333V16H22.6667V22.6667H9.33333V16H6.66667ZM12 20H20V16H12V20ZM6.66667 13.3333H25.3333V6.66667H6.66667V13.3333ZM10.6667 10.6667C10.2889 10.6667 9.972 10.5391 9.716 10.284C9.46089 10.028 9.33333 9.71111 9.33333 9.33333C9.33333 8.95556 9.46089 8.63867 9.716 8.38267C9.972 8.12756 10.2889 8 10.6667 8C11.0444 8 11.3613 8.12756 11.6173 8.38267C11.8724 8.63867 12 8.95556 12 9.33333C12 9.71111 11.8724 10.028 11.6173 10.284C11.3613 10.5391 11.0444 10.6667 10.6667 10.6667ZM16 10.6667C15.6222 10.6667 15.3058 10.5391 15.0507 10.284C14.7947 10.028 14.6667 9.71111 14.6667 9.33333C14.6667 8.95556 14.7947 8.63867 15.0507 8.38267C15.3058 8.12756 15.6222 8 16 8C16.3778 8 16.6947 8.12756 16.9507 8.38267C17.2058 8.63867 17.3333 8.95556 17.3333 9.33333C17.3333 9.71111 17.2058 10.028 16.9507 10.284C16.6947 10.5391 16.3778 10.6667 16 10.6667ZM21.3333 10.6667C20.9556 10.6667 20.6391 10.5391 20.384 10.284C20.128 10.028 20 9.71111 20 9.33333C20 8.95556 20.128 8.63867 20.384 8.38267C20.6391 8.12756 20.9556 8 21.3333 8C21.7111 8 22.0276 8.12756 22.2827 8.38267C22.5387 8.63867 22.6667 8.95556 22.6667 9.33333C22.6667 9.71111 22.5387 10.028 22.2827 10.284C22.0276 10.5391 21.7111 10.6667 21.3333 10.6667Z" fill="#D4182E"/>
</svg>
