<svg width="32" height="32" viewBox="0 0 32 32" fill="none" xmlns="http://www.w3.org/2000/svg">
<path fill-rule="evenodd" clip-rule="evenodd" d="M12.6668 5.33325C13.4032 5.33325 14.0002 5.93021 14.0002 6.66659V13.3333C14.0002 14.0696 13.4032 14.6666 12.6668 14.6666C11.9305 14.6666 11.3335 14.0696 11.3335 13.3333V6.66659C11.3335 5.93021 11.9305 5.33325 12.6668 5.33325ZM7.3335 6.66659C8.06988 6.66659 8.66684 7.26354 8.66684 7.99992V11.9999C8.66684 12.7363 8.06988 13.3333 7.3335 13.3333C6.59712 13.3333 6.00017 12.7363 6.00017 11.9999V7.99992C6.00017 7.26354 6.59712 6.66659 7.3335 6.66659ZM18.0002 6.66659C18.7365 6.66659 19.3335 7.26354 19.3335 7.99992V11.9999C19.3335 12.7363 18.7365 13.3333 18.0002 13.3333C17.2638 13.3333 16.6668 12.7363 16.6668 11.9999V7.99992C16.6668 7.26354 17.2638 6.66659 18.0002 6.66659ZM30.5715 15.5047C30.845 16.1884 30.5124 16.9644 29.8287 17.2379L23.9002 19.6093L23.6987 21.354C23.6987 21.3541 23.6987 21.354 23.6987 21.354C23.53 22.8165 22.8294 24.1661 21.7304 25.1457C20.6313 26.1253 19.2104 26.6666 17.7382 26.6666H7.59552C6.12324 26.6666 4.70235 26.1253 3.60326 25.1457C2.50422 24.1661 1.80369 22.8167 1.63497 21.3542C1.63496 21.3541 1.63498 21.3542 1.63497 21.3542L1.3423 18.8195C1.29869 18.4418 1.41843 18.0634 1.67142 17.7795C1.92441 17.4956 2.28658 17.3333 2.66684 17.3333H22.4101L28.8383 14.7619C29.522 14.4885 30.298 14.821 30.5715 15.5047ZM21.1707 19.9999H4.16298L4.28404 21.0483C4.37775 21.8609 4.76696 22.6108 5.37756 23.155C5.98817 23.6992 6.77755 23.9999 7.5955 23.9999H17.7382C18.5561 23.9999 19.3455 23.6992 19.9561 23.155C20.5667 22.6108 20.9559 21.861 21.0496 21.0485L21.1707 19.9999Z" fill="#D4182E"/>
</svg>
