<svg width="32" height="32" viewBox="0 0 32 32" fill="none" xmlns="http://www.w3.org/2000/svg">
<path d="M10 25.5001C8.48 25.5001 7.25 24.2701 7.25 22.7501V18.8701C7.25 17.3501 8.48 16.1201 10 16.1201C11.52 16.1201 12.75 17.3501 12.75 18.8701V22.7501C12.75 24.2701 11.52 25.5001 10 25.5001ZM19.25 22.7501C19.25 24.2701 20.48 25.5001 22 25.5001C23.52 25.5001 24.75 24.2701 24.75 22.7501V18.8701C24.75 17.3501 23.52 16.1201 22 16.1201C20.48 16.1201 19.25 17.3501 19.25 18.8701V22.7501Z" fill="#D4182E"/>
<path d="M1 21.776C1.12 13.514 7.894 8 16 8C24.107 8 30.88 13.514 31 21.776V21.999C31.0004 23.1811 30.7679 24.3516 30.3157 25.4438C29.8636 26.5359 29.2007 27.5283 28.3649 28.3642C27.5291 29.2001 26.5368 29.8631 25.4447 30.3154C24.3526 30.7676 23.1821 31.0003 22 31H10C5.028 31 1 26.972 1 22V21.776ZM3 21.797V22C3 25.867 6.132 29 10 29H22C25.868 29 29 25.868 29 22V21.798C28.895 14.824 23.211 10 16 10C8.789 10 3.104 14.823 3 21.797Z" fill="#D4182E"/>
</svg>
