<svg width="31" height="32" viewBox="0 0 31 32" fill="none" xmlns="http://www.w3.org/2000/svg">
<path d="M11.4285 13.7235C11.7306 13.7235 12.0204 13.6035 12.234 13.3899C12.4476 13.1763 12.5676 12.8865 12.5676 12.5844C12.5676 12.2823 12.4476 11.9926 12.234 11.779C12.0204 11.5654 11.7306 11.4454 11.4285 11.4454C11.1265 11.4454 10.8367 11.5654 10.6231 11.779C10.4095 11.9926 10.2895 12.2823 10.2895 12.5844C10.2895 12.8865 10.4095 13.1763 10.6231 13.3899C10.8367 13.6035 11.1265 13.7235 11.4285 13.7235ZM17.1017 15.6328C17.1017 15.9349 16.9817 16.2246 16.7681 16.4383C16.5545 16.6519 16.2647 16.7719 15.9626 16.7719C15.6606 16.7719 15.3708 16.6519 15.1572 16.4383C14.9436 16.2246 14.8236 15.9349 14.8236 15.6328C14.8236 15.3307 14.9436 15.041 15.1572 14.8274C15.3708 14.6138 15.6606 14.4938 15.9626 14.4938C16.2647 14.4938 16.5545 14.6138 16.7681 14.8274C16.9817 15.041 17.1017 15.3307 17.1017 15.6328ZM11.4346 20.5898C11.7382 20.5898 12.0292 20.4692 12.2438 20.2546C12.4585 20.04 12.579 19.7489 12.579 19.4454C12.579 19.1419 12.4585 18.8508 12.2438 18.6362C12.0292 18.4216 11.7382 18.301 11.4346 18.301C11.1311 18.301 10.8401 18.4216 10.6254 18.6362C10.4108 18.8508 10.2903 19.1419 10.2903 19.4454C10.2903 19.7489 10.4108 20.04 10.6254 20.2546C10.8401 20.4692 11.1311 20.5898 11.4346 20.5898ZM6.09521 6.03435C6.09521 4.36578 7.45902 2.95321 9.18855 3.05987C15.9649 3.47587 21.9078 5.75701 26.563 10.202C27.8842 11.4622 27.6236 13.5208 26.2537 14.5723C24.1219 16.2179 21.9758 17.8449 19.8156 19.453V22.1044C19.8156 23.197 18.9699 24.3902 17.5299 24.3902C17.272 24.3907 17.0158 24.3495 16.771 24.2683V24.3947C16.771 25.4812 15.9238 26.6667 14.4807 26.6667C13.3318 26.6667 12.5745 25.9094 12.3078 25.0667C11.4727 25.6915 10.56 26.3711 9.74474 26.9776C8.23617 28.1006 6.09521 27.0233 6.09521 25.1475V6.03435ZM16.7695 22.1044C16.7695 22.4991 17.0666 22.8663 17.5299 22.8663C17.9946 22.8663 18.2918 22.4976 18.2918 22.1044V19.066C18.2919 18.9459 18.3204 18.8275 18.3749 18.7205C18.4295 18.6135 18.5086 18.521 18.6057 18.4503C19.7943 17.5879 21.8179 16.0503 23.6099 14.6804C19.5063 10.7734 13.7539 8.45568 7.61902 8.40844V25.1475C7.61944 25.2885 7.65897 25.4266 7.73321 25.5464C7.80744 25.6663 7.91348 25.7632 8.03951 25.8263C8.16554 25.8895 8.30663 25.9165 8.44708 25.9042C8.58752 25.892 8.72182 25.841 8.83502 25.757C10.0327 24.8641 11.4453 23.8126 12.5059 23.0172C12.6191 22.9323 12.7537 22.8806 12.8946 22.8679C13.0355 22.8552 13.1772 22.882 13.3038 22.9453C13.4303 23.0085 13.5368 23.1058 13.6111 23.2262C13.6855 23.3465 13.7249 23.4852 13.7249 23.6267V24.3947C13.7249 24.7696 14.0145 25.1444 14.4807 25.1444C14.5806 25.1469 14.6799 25.1293 14.7728 25.0927C14.8657 25.056 14.9503 25.0012 15.0217 24.9313C15.093 24.8614 15.1496 24.7779 15.188 24.6857C15.2265 24.5935 15.2461 24.4946 15.2457 24.3947V22.1044C15.2457 21.9024 15.326 21.7086 15.4688 21.5657C15.6117 21.4228 15.8055 21.3425 16.0076 21.3425C16.2097 21.3425 16.4035 21.4228 16.5463 21.5657C16.6892 21.7086 16.7695 21.9024 16.7695 22.1044ZM25.3242 13.3654C26.0327 12.8214 26.0861 11.8523 25.5101 11.3022C21.1565 7.14673 15.5748 4.97835 9.0956 4.57911C8.30474 4.53035 7.61902 5.17949 7.61902 6.03435V6.88463C14.2125 6.93492 20.4221 9.4553 24.8335 13.7418L25.3242 13.3654Z" fill="#D4182E"/>
</svg>
