<svg width="32" height="32" viewBox="0 0 32 32" fill="none" xmlns="http://www.w3.org/2000/svg">
<g clip-path="url(#clip0_489_8671)">
<path d="M9.50001 5V2C9.50001 1.60218 9.65804 1.22064 9.93935 0.93934C10.2206 0.658035 10.6022 0.5 11 0.5C11.3978 0.5 11.7794 0.658035 12.0607 0.93934C12.342 1.22064 12.5 1.60218 12.5 2V5C12.5 5.39782 12.342 5.77936 12.0607 6.06066C11.7794 6.34196 11.3978 6.5 11 6.5C10.6022 6.5 10.2206 6.34196 9.93935 6.06066C9.65804 5.77936 9.50001 5.39782 9.50001 5ZM16 6.5C16.3978 6.5 16.7794 6.34196 17.0607 6.06066C17.342 5.77936 17.5 5.39782 17.5 5V2C17.5 1.60218 17.342 1.22064 17.0607 0.93934C16.7794 0.658035 16.3978 0.5 16 0.5C15.6022 0.5 15.2206 0.658035 14.9393 0.93934C14.658 1.22064 14.5 1.60218 14.5 2V5C14.5 5.39782 14.658 5.77936 14.9393 6.06066C15.2206 6.34196 15.6022 6.5 16 6.5ZM21 6.5C21.3978 6.5 21.7794 6.34196 22.0607 6.06066C22.342 5.77936 22.5 5.39782 22.5 5V2C22.5 1.60218 22.342 1.22064 22.0607 0.93934C21.7794 0.658035 21.3978 0.5 21 0.5C20.6022 0.5 20.2207 0.658035 19.9393 0.93934C19.658 1.22064 19.5 1.60218 19.5 2V5C19.5 5.39782 19.658 5.77936 19.9393 6.06066C20.2207 6.34196 20.6022 6.5 21 6.5ZM31.4 13.2L28 15.75V23C28 24.1935 27.5259 25.3381 26.682 26.182C25.8381 27.0259 24.6935 27.5 23.5 27.5H8.50001C7.30653 27.5 6.16194 27.0259 5.31803 26.182C4.47411 25.3381 4.00001 24.1935 4.00001 23V15.75L0.600006 13.2C0.281746 12.9613 0.0713428 12.606 0.0150819 12.2121C-0.041179 11.8183 0.0613113 11.4183 0.300006 11.1C0.538701 10.7817 0.894048 10.5713 1.28787 10.5151C1.6817 10.4588 2.08175 10.5613 2.40001 10.8L4.00001 12V11C4.00329 10.338 4.26774 9.70399 4.73587 9.23586C5.204 8.76773 5.83798 8.50329 6.50001 8.5H25.5C26.162 8.50329 26.796 8.76773 27.2641 9.23586C27.7323 9.70399 27.9967 10.338 28 11V12L29.6 10.8C29.9183 10.5613 30.3183 10.4588 30.7121 10.5151C31.106 10.5713 31.4613 10.7817 31.7 11.1C31.9387 11.4183 32.0412 11.8183 31.9849 12.2121C31.9287 12.606 31.7183 12.9613 31.4 13.2ZM25 11.5H7.00001V23C7.00001 23.3978 7.15804 23.7794 7.43935 24.0607C7.72065 24.342 8.10218 24.5 8.50001 24.5H23.5C23.8978 24.5 24.2794 24.342 24.5607 24.0607C24.842 23.7794 25 23.3978 25 23V11.5Z" fill="#D4182E"/>
</g>
<defs>
<clipPath id="clip0_489_8671">
<rect width="32" height="32" fill="white"/>
</clipPath>
</defs>
</svg>
