<svg width="32" height="32" viewBox="0 0 32 32" fill="none" xmlns="http://www.w3.org/2000/svg">
<path d="M9.33317 26.2133V28C9.33317 28.3536 9.47365 28.6928 9.72369 28.9428C9.97374 29.1929 10.3129 29.3333 10.6665 29.3333H21.3332C21.6868 29.3333 22.0259 29.1929 22.276 28.9428C22.526 28.6928 22.6665 28.3536 22.6665 28V26.2133C24.6934 25.0431 26.3765 23.36 27.5468 21.3332C28.717 19.3063 29.3331 17.0071 29.3332 14.6667C29.3332 14.3131 29.1927 13.9739 28.9426 13.7239C28.6926 13.4738 28.3535 13.3333 27.9998 13.3333C27.9754 12.517 27.7419 11.7205 27.3217 11.0202C26.9015 10.3199 26.3087 9.73906 25.5998 9.33335C25.4299 8.17193 24.847 7.11069 23.958 6.34419C23.0691 5.57768 21.9336 5.15726 20.7598 5.16001C20.3097 5.15924 19.8615 5.21751 19.4265 5.33335C18.5088 4.45715 17.2887 3.96826 16.0198 3.96826C14.751 3.96826 13.5309 4.45715 12.6132 5.33335C12.1782 5.21751 11.7299 5.15924 11.2798 5.16001C10.1015 5.15082 8.95959 5.56832 8.06506 6.33541C7.17053 7.1025 6.58378 8.16737 6.41317 9.33335C5.70186 9.7374 5.10633 10.3175 4.68372 11.0179C4.26112 11.7184 4.02562 12.5157 3.99984 13.3333C3.64622 13.3333 3.30708 13.4738 3.05703 13.7239C2.80698 13.9739 2.6665 14.3131 2.6665 14.6667C2.66656 17.0071 3.28267 19.3063 4.45292 21.3332C5.62316 23.36 7.3063 25.0431 9.33317 26.2133ZM8.1465 11.5467L9.25317 11.2L9.03984 10C9.04332 9.71285 9.10333 9.42918 9.21645 9.16522C9.32957 8.90125 9.49357 8.66215 9.69911 8.46157C9.90464 8.26099 10.1477 8.10286 10.4143 7.99621C10.681 7.88957 10.966 7.83649 11.2532 7.84001C11.6382 7.83781 12.018 7.92933 12.3598 8.10668L13.4398 8.70668L14.1065 7.68001C14.315 7.36926 14.5968 7.11461 14.927 6.93852C15.2572 6.76243 15.6256 6.67032 15.9998 6.67032C16.374 6.67032 16.7425 6.76243 17.0727 6.93852C17.4029 7.11461 17.6847 7.36926 17.8932 7.68001L18.5598 8.70668L19.6398 8.10668C19.9816 7.92933 20.3614 7.83781 20.7465 7.84001C21.3232 7.83276 21.8797 8.05226 22.2962 8.45127C22.7126 8.85027 22.9557 9.39686 22.9732 9.97335L22.7598 11.1067L23.8532 11.48C24.2565 11.6062 24.6129 11.8501 24.8766 12.1803C25.1403 12.5106 25.2993 12.9121 25.3332 13.3333H6.6665C6.70037 12.9121 6.85937 12.5106 7.12308 12.1803C7.38679 11.8501 7.74318 11.6062 8.1465 11.48V11.5467ZM26.5865 16C26.3641 17.7456 25.7132 19.4091 24.6919 20.8422C23.6706 22.2752 22.3106 23.4334 20.7332 24.2133C20.5113 24.3252 20.325 24.4968 20.1954 24.7088C20.0659 24.9208 19.9981 25.1649 19.9998 25.4133V26.6667H11.9998V25.4133C12.0016 25.1649 11.9338 24.9208 11.8042 24.7088C11.6747 24.4968 11.4884 24.3252 11.2665 24.2133C9.68905 23.4334 8.32907 22.2752 7.30778 20.8422C6.28649 19.4091 5.63562 17.7456 5.41317 16H26.5865Z" fill="#D4182E"/>
</svg>
