<svg width="32" height="32" viewBox="0 0 32 32" fill="none" xmlns="http://www.w3.org/2000/svg">
<path fill-rule="evenodd" clip-rule="evenodd" d="M9.29183 3.29208C9.38473 3.19895 9.49508 3.12507 9.61657 3.07465C9.73806 3.02424 9.8683 2.99829 9.99983 2.99829C10.1314 2.99829 10.2616 3.02424 10.3831 3.07465C10.5046 3.12507 10.6149 3.19895 10.7078 3.29208L22.7078 15.2921C22.801 15.385 22.8748 15.4953 22.9253 15.6168C22.9757 15.7383 23.0016 15.8685 23.0016 16.0001C23.0016 16.1316 22.9757 16.2619 22.9253 16.3833C22.8748 16.5048 22.801 16.6152 22.7078 16.7081L10.7078 28.7081C10.5201 28.8959 10.2654 29.0013 9.99983 29.0013C9.73428 29.0013 9.47961 28.8959 9.29183 28.7081C9.10406 28.5203 8.99857 28.2656 8.99857 28.0001C8.99857 27.7345 9.10406 27.4799 9.29183 27.2921L20.5858 16.0001L9.29183 4.70808C9.19871 4.61519 9.12482 4.50484 9.07441 4.38335C9.024 4.26186 8.99805 4.13161 8.99805 4.00008C8.99805 3.86854 9.024 3.7383 9.07441 3.61681C9.12482 3.49532 9.19871 3.38497 9.29183 3.29208Z" fill="#D4182E"/>
</svg>
