<svg width="32" height="31" viewBox="0 0 32 31" fill="none" xmlns="http://www.w3.org/2000/svg">
<path fill-rule="evenodd" clip-rule="evenodd" d="M23 2.00501C22.606 2.00501 22.2159 2.08261 21.8519 2.23337C21.488 2.38414 21.1573 2.60512 20.8787 2.88369C20.6001 3.16227 20.3791 3.49299 20.2284 3.85696C20.0776 4.22094 20 4.61105 20 5.00501C20 5.39898 20.0776 5.78909 20.2284 6.15306C20.3791 6.51704 20.6001 6.84776 20.8787 7.12633C21.1573 7.40491 21.488 7.62589 21.8519 7.77665C22.2159 7.92742 22.606 8.00501 23 8.00501C23.7956 8.00501 24.5587 7.68894 25.1213 7.12633C25.6839 6.56372 26 5.80066 26 5.00501C26 4.20936 25.6839 3.4463 25.1213 2.88369C24.5587 2.32108 23.7956 2.00501 23 2.00501ZM18.1 4.00501C18.3295 2.87472 18.9427 1.85854 19.8357 1.12863C20.7288 0.398732 21.8466 0 23 0C24.1534 0 25.2712 0.398732 26.1643 1.12863C27.0573 1.85854 27.6705 2.87472 27.9 4.00501H32V6.00501H27.9C27.6705 7.1353 27.0573 8.15149 26.1643 8.88139C25.2712 9.61129 24.1534 10.01 23 10.01C21.8466 10.01 20.7288 9.61129 19.8357 8.88139C18.9427 8.15149 18.3295 7.1353 18.1 6.00501H0V4.00501H18.1ZM9 12.005C8.20435 12.005 7.44129 12.3211 6.87868 12.8837C6.31607 13.4463 6 14.2094 6 15.005C6 15.8007 6.31607 16.5637 6.87868 17.1263C7.44129 17.6889 8.20435 18.005 9 18.005C9.79565 18.005 10.5587 17.6889 11.1213 17.1263C11.6839 16.5637 12 15.8007 12 15.005C12 14.2094 11.6839 13.4463 11.1213 12.8837C10.5587 12.3211 9.79565 12.005 9 12.005ZM4.1 14.005C4.32951 12.8747 4.94273 11.8585 5.83574 11.1286C6.72875 10.3987 7.84664 10 9 10C10.1534 10 11.2712 10.3987 12.1643 11.1286C13.0573 11.8585 13.6705 12.8747 13.9 14.005H32V16.005H13.9C13.6705 17.1353 13.0573 18.1515 12.1643 18.8814C11.2712 19.6113 10.1534 20.01 9 20.01C7.84664 20.01 6.72875 19.6113 5.83574 18.8814C4.94273 18.1515 4.32951 17.1353 4.1 16.005H0V14.005H4.1ZM23 22.005C22.2044 22.005 21.4413 22.3211 20.8787 22.8837C20.3161 23.4463 20 24.2094 20 25.005C20 25.8007 20.3161 26.5637 20.8787 27.1263C21.4413 27.6889 22.2044 28.005 23 28.005C23.7956 28.005 24.5587 27.6889 25.1213 27.1263C25.6839 26.5637 26 25.8007 26 25.005C26 24.2094 25.6839 23.4463 25.1213 22.8837C24.5587 22.3211 23.7956 22.005 23 22.005ZM18.1 24.005C18.3295 22.8747 18.9427 21.8585 19.8357 21.1286C20.7288 20.3987 21.8466 20 23 20C24.1534 20 25.2712 20.3987 26.1643 21.1286C27.0573 21.8585 27.6705 22.8747 27.9 24.005H32V26.005H27.9C27.6705 27.1353 27.0573 28.1515 26.1643 28.8814C25.2712 29.6113 24.1534 30.01 23 30.01C21.8466 30.01 20.7288 29.6113 19.8357 28.8814C18.9427 28.1515 18.3295 27.1353 18.1 26.005H0V24.005H18.1Z" fill="#D4182E"/>
</svg>
