<svg width="32" height="32" viewBox="0 0 32 32" fill="none" xmlns="http://www.w3.org/2000/svg">
<path fill-rule="evenodd" clip-rule="evenodd" d="M11.9998 5.33325C12.7362 5.33325 13.3332 5.93021 13.3332 6.66659V10.6666C13.3332 11.403 12.7362 11.9999 11.9998 11.9999C11.2635 11.9999 10.6665 11.403 10.6665 10.6666V6.66659C10.6665 5.93021 11.2635 5.33325 11.9998 5.33325ZM15.9998 5.33325C16.7362 5.33325 17.3332 5.93021 17.3332 6.66659V10.6666C17.3332 11.403 16.7362 11.9999 15.9998 11.9999C15.2635 11.9999 14.6665 11.403 14.6665 10.6666V6.66659C14.6665 5.93021 15.2635 5.33325 15.9998 5.33325ZM19.9998 5.33325C20.7362 5.33325 21.3332 5.93021 21.3332 6.66659V10.6666C21.3332 11.403 20.7362 11.9999 19.9998 11.9999C19.2635 11.9999 18.6665 11.403 18.6665 10.6666V6.66659C18.6665 5.93021 19.2635 5.33325 19.9998 5.33325ZM2.6665 14.6666C2.6665 13.9302 3.26346 13.3333 3.99984 13.3333H27.9998C28.3535 13.3333 28.6926 13.4737 28.9426 13.7238C29.1927 13.9738 29.3332 14.313 29.3332 14.6666C29.3332 17.8492 28.0689 20.9014 25.8185 23.1519C25.518 23.4524 25.2032 23.7353 24.8757 23.9999H27.9998C28.7362 23.9999 29.3332 24.5969 29.3332 25.3333C29.3332 26.0696 28.7362 26.6666 27.9998 26.6666H3.99984C3.26346 26.6666 2.6665 26.0696 2.6665 25.3333C2.6665 24.5969 3.26346 23.9999 3.99984 23.9999H7.12397C6.79649 23.7353 6.48171 23.4524 6.18122 23.1519C3.93079 20.9014 2.6665 17.8492 2.6665 14.6666ZM5.42886 15.9999C5.71497 17.9823 6.63386 19.8333 8.06684 21.2662C9.81718 23.0166 12.1911 23.9999 14.6665 23.9999H17.3332C19.8085 23.9999 22.1825 23.0166 23.9328 21.2662C25.3658 19.8333 26.2847 17.9823 26.5708 15.9999H5.42886Z" fill="#D4182E"/>
</svg>
