<svg width="32" height="32" viewBox="0 0 32 32" fill="none" xmlns="http://www.w3.org/2000/svg">
<path d="M15.9998 29.3334C8.63584 29.3334 2.6665 23.3641 2.6665 16.0001C2.6665 8.63608 8.63584 2.66675 15.9998 2.66675C23.3638 2.66675 29.3332 8.63608 29.3332 16.0001C29.3332 23.3641 23.3638 29.3334 15.9998 29.3334ZM9.33317 24.3267V17.3334C9.33317 16.6262 9.61412 15.9479 10.1142 15.4478C10.6143 14.9477 11.2926 14.6667 11.9998 14.6667H19.9998C20.7071 14.6667 21.3854 14.9477 21.8855 15.4478C22.3856 15.9479 22.6665 16.6262 22.6665 17.3334V24.3267C24.3916 22.9455 25.6452 21.0626 26.2539 18.9381C26.8626 16.8137 26.7964 14.5526 26.0645 12.4674C25.3326 10.3822 23.9711 8.57575 22.1681 7.29779C20.3652 6.01983 18.2098 5.33342 15.9998 5.33342C13.7899 5.33342 11.6345 6.01983 9.83155 7.29779C8.02859 8.57575 6.66707 10.3822 5.93516 12.4674C5.20324 14.5526 5.13707 16.8137 5.74578 18.9381C6.35449 21.0626 7.60803 22.9455 9.33317 24.3267Z" fill="#D4182E"/>
</svg>
