<svg width="32" height="32" viewBox="0 0 32 32" fill="none" xmlns="http://www.w3.org/2000/svg">
<path d="M2.6665 25.3333H26.6665V28H2.6665V25.3333ZM26.6665 4H5.33317V17.3333C5.33317 20.28 7.71984 22.6667 10.6665 22.6667H18.6665C21.6132 22.6667 23.9998 20.28 23.9998 17.3333V13.3333H26.6665C28.1465 13.3333 29.3332 12.1467 29.3332 10.6667V6.66667C29.3332 5.18667 28.1465 4 26.6665 4ZM21.3332 17.3333C21.3332 18.8 20.1332 20 18.6665 20H10.6665C9.19984 20 7.99984 18.8 7.99984 17.3333V6.66667H11.9998V8.53333L9.5865 10.4667C9.4265 10.5867 9.33317 10.7867 9.33317 10.9867V16.6667C9.33317 17.04 9.6265 17.3333 9.99984 17.3333H15.3332C15.7065 17.3333 15.9998 17.04 15.9998 16.6667V10.9867C15.9998 10.7867 15.9065 10.5867 15.7465 10.4667L13.3332 8.53333V6.66667H21.3332V17.3333ZM12.6665 9.70667L14.6665 11.3067V16H10.6665V11.3067L12.6665 9.70667ZM26.6665 10.6667H23.9998V6.66667H26.6665V10.6667Z" fill="#D4182E"/>
</svg>
