<svg width="32" height="32" viewBox="0 0 32 32" fill="none" xmlns="http://www.w3.org/2000/svg">
<path d="M0 24V8C0 6.93913 0.421427 5.92172 1.17157 5.17157C1.92172 4.42143 2.93913 4 4 4H28C29.0609 4 30.0783 4.42143 30.8284 5.17157C31.5786 5.92172 32 6.93913 32 8V24C32 25.0609 31.5786 26.0783 30.8284 26.8284C30.0783 27.5786 29.0609 28 28 28H4C2.93913 28 1.92172 27.5786 1.17157 26.8284C0.421427 26.0783 0 25.0609 0 24ZM13.58 10.186C13.4305 10.0795 13.2545 10.0163 13.0714 10.0032C12.8884 9.99006 12.7052 10.0276 12.542 10.1117C12.3788 10.1957 12.242 10.3231 12.1463 10.4798C12.0507 10.6365 12.0001 10.8164 12 11V21C12.0001 21.1836 12.0507 21.3635 12.1463 21.5202C12.242 21.6769 12.3788 21.8043 12.542 21.8883C12.7052 21.9724 12.8884 22.0099 13.0714 21.9968C13.2545 21.9837 13.4305 21.9205 13.58 21.814L20.58 16.814C20.7096 16.7215 20.8153 16.5994 20.8882 16.4578C20.9611 16.3162 20.9991 16.1593 20.9991 16C20.9991 15.8407 20.9611 15.6838 20.8882 15.5422C20.8153 15.4006 20.7096 15.2785 20.58 15.186L13.58 10.186Z" fill="#D4182E"/>
</svg>
