<svg width="32" height="32" viewBox="0 0 32 32" fill="none" xmlns="http://www.w3.org/2000/svg">
<path d="M13.58 10.1861C13.4305 10.0797 13.2545 10.0164 13.0714 10.0033C12.8884 9.99017 12.7052 10.0277 12.542 10.1118C12.3788 10.1958 12.242 10.3232 12.1463 10.4799C12.0507 10.6366 12.0001 10.8166 12 11.0001V21.0001C12.0001 21.1837 12.0507 21.3637 12.1463 21.5203C12.242 21.677 12.3788 21.8044 12.542 21.8885C12.7052 21.9725 12.8884 22.0101 13.0714 21.9969C13.2545 21.9838 13.4305 21.9206 13.58 21.8141L20.58 16.8141C20.7096 16.7216 20.8153 16.5995 20.8882 16.4579C20.9611 16.3163 20.9991 16.1594 20.9991 16.0001C20.9991 15.8409 20.9611 15.6839 20.8882 15.5423C20.8153 15.4007 20.7096 15.2786 20.58 15.1861L13.58 10.1861Z" fill="#D4182E"/>
<path d="M0 8C0 6.93913 0.421427 5.92172 1.17157 5.17157C1.92172 4.42143 2.93913 4 4 4H28C29.0609 4 30.0783 4.42143 30.8284 5.17157C31.5786 5.92172 32 6.93913 32 8V24C32 25.0609 31.5786 26.0783 30.8284 26.8284C30.0783 27.5786 29.0609 28 28 28H4C2.93913 28 1.92172 27.5786 1.17157 26.8284C0.421427 26.0783 0 25.0609 0 24V8ZM30 8C30 7.46957 29.7893 6.96086 29.4142 6.58579C29.0391 6.21071 28.5304 6 28 6H4C3.46957 6 2.96086 6.21071 2.58579 6.58579C2.21071 6.96086 2 7.46957 2 8V24C2 24.5304 2.21071 25.0391 2.58579 25.4142C2.96086 25.7893 3.46957 26 4 26H28C28.5304 26 29.0391 25.7893 29.4142 25.4142C29.7893 25.0391 30 24.5304 30 24V8Z" fill="#D4182E"/>
</svg>
