<svg width="32" height="32" viewBox="0 0 32 32" fill="none" xmlns="http://www.w3.org/2000/svg">
<path d="M21 3V5.586L17 9.586V1H15V9.586L11 5.586V3H9V19C9.0028 20.6816 9.61053 22.3061 10.7122 23.5766C11.8138 24.8472 13.3357 25.6789 15 25.92V30H17V25.92C18.6643 25.6789 20.1862 24.8472 21.2878 23.5766C22.3895 22.3061 22.9972 20.6816 23 19V3H21ZM15 23.899C13.8715 23.6671 12.8574 23.0532 12.1288 22.1608C11.4002 21.2684 11.0015 20.1521 11 19V16.414L15 20.414V23.899ZM15 17.586L11 13.586V8.414L15 12.414V17.586ZM17 12.414L21 8.414V13.586L17 17.586V12.414ZM17 23.899V20.414L21 16.414V19C20.9985 20.1521 20.5998 21.2684 19.8712 22.1608C19.1426 23.0532 18.1285 23.6671 17 23.899Z" fill="#D4182E"/>
</svg>
